<svg width="529" height="160" viewBox="0 0 529 160" fill="none" xmlns="http://www.w3.org/2000/svg">
<mask id="mask0_40_113" style="mask-type:alpha" maskUnits="userSpaceOnUse" x="0" y="0" width="160" height="160">
<rect width="160" height="160" fill="#C4C4C4"/>
</mask>
<g mask="url(#mask0_40_113)">
<path fill-rule="evenodd" clip-rule="evenodd" d="M93.5758 42.7936C93.5758 42.7936 80 37.8836 66.4242 42.7936C66.4242 42.7936 67.3939 44.7577 68.3636 51.1407C66.4242 44.7577 53.8182 23.1534 38.303 13.3333C38.303 46.8971 55.0389 54.4183 57.7987 55.4304L49.4545 52.6137C38.303 55.5598 24.2424 91.8942 16 168L60.606 167.83C60.606 167.83 60.606 141.977 74.1818 141.977V136.576C74.1818 136.576 55.2727 136.576 49.9394 122.827L50.4534 154.252C48.4848 141.977 48.4848 119.39 48.4848 119.39C48.4848 119.081 48.4821 118.694 48.479 118.238L48.4789 118.231L48.4789 118.23C48.4216 109.985 48.2069 79.1001 60.606 69.7989C54.5454 76.9185 53.3333 91.8942 53.3333 91.8942C54.5454 94.8402 58.9091 95.5767 58.9091 95.5767C58.9091 95.5767 59.8788 91.6487 62.5454 88.4571C62.5454 88.4571 61.8181 99.2592 78.0606 99.2592C78.0606 99.2592 76.606 95.8222 77.5757 92.3852C77.5757 92.3852 80.4848 97.7862 88.7272 97.2952C88.7272 97.2952 90.4242 94.3492 90.1818 91.8942C90.1818 91.8942 93.3333 95.5767 98.909 95.8222C98.909 95.8222 99.3939 93.1217 99.3939 90.9121C99.3939 90.9121 102.545 95.5767 107.636 95.5767C106.909 85.7566 103.758 78.146 99.3939 69.7989C111.604 82.164 111.554 102.732 111.519 117.177C111.517 117.932 111.515 118.671 111.515 119.39C111.515 119.39 111.515 141.977 109.576 154.252L110.061 122.827C104.727 136.576 85.8181 136.576 85.8181 136.576V141.977C99.3939 141.977 99.3939 168 99.3939 168H144C135.758 91.8942 121.697 55.5598 110.545 52.6137L102.37 55.3734C105.58 54.1724 121.697 46.4915 121.697 13.3333C106.182 23.1534 93.5758 44.7577 91.1515 51.1407C92.6061 44.7577 93.5758 42.7936 93.5758 42.7936ZM101.818 55.5598C101.818 55.5598 102.015 55.5062 102.37 55.3734L101.818 55.5598ZM58.1818 55.5598L57.7987 55.4304C58.0467 55.5214 58.1818 55.5598 58.1818 55.5598ZM59.1515 98.7682C69.3333 99.0137 72.4848 107.115 72.7272 108.588L71.2727 107.606C71.2727 107.606 70.7878 122.091 61.5757 122.336C52.2951 122.584 52.341 112.006 52.3618 107.227V107.226V107.226V107.226C52.3627 107.013 52.3636 106.812 52.3636 106.624C51.3939 109.079 50.4242 114.971 50.4242 114.971C50.4242 109.816 51.6363 98.587 59.1515 98.7682ZM87.2727 108.588C87.5151 107.115 90.6666 99.0137 100.848 98.7682C108.364 98.587 109.576 109.816 109.576 114.971C109.576 114.971 108.606 109.079 107.636 106.624C107.636 106.812 107.637 107.012 107.638 107.223L107.638 107.227C107.659 112.006 107.705 122.584 98.4242 122.336C89.2121 122.091 88.7272 107.606 88.7272 107.606L87.2727 108.588ZM61.145 116.935C61.0887 116.935 61.033 116.925 60.9801 116.906C60.8782 116.868 60.7917 116.797 60.7346 116.703C60.6774 116.61 60.6529 116.5 60.665 116.39L61.0383 112.909H58.1825C58.0945 112.909 58.008 112.885 57.9325 112.839C57.8569 112.793 57.7952 112.728 57.7538 112.649C57.7124 112.57 57.693 112.481 57.6976 112.392C57.7023 112.303 57.7308 112.217 57.7801 112.143L61.6056 106.349C61.6661 106.259 61.7548 106.191 61.8575 106.157C61.9603 106.124 62.0713 106.125 62.1728 106.163C62.2705 106.2 62.3539 106.267 62.4106 106.356C62.4674 106.444 62.4945 106.549 62.488 106.654L62.1147 110.16H64.9704C65.0585 110.159 65.145 110.184 65.2205 110.23C65.296 110.275 65.3578 110.341 65.3992 110.42C65.4406 110.499 65.46 110.587 65.4553 110.676C65.4507 110.766 65.4222 110.852 65.3729 110.926L61.5474 116.719C61.5029 116.786 61.443 116.841 61.3728 116.878C61.3026 116.916 61.2244 116.936 61.145 116.935ZM98.4783 116.935C98.4221 116.935 98.3663 116.925 98.3135 116.906C98.2115 116.868 98.125 116.797 98.0679 116.703C98.0108 116.61 97.9863 116.5 97.9983 116.39L98.3716 112.909H95.5159C95.4278 112.909 95.3413 112.885 95.2658 112.839C95.1903 112.793 95.1285 112.728 95.0871 112.649C95.0457 112.57 95.0263 112.481 95.031 112.392C95.0356 112.303 95.0641 112.217 95.1135 112.143L98.9389 106.349C98.9994 106.259 99.0881 106.191 99.1909 106.157C99.2936 106.124 99.4046 106.125 99.5062 106.163C99.6038 106.2 99.6872 106.267 99.7439 106.356C99.8007 106.444 99.8278 106.549 99.8213 106.654L99.448 110.16H102.304C102.392 110.159 102.478 110.184 102.554 110.23C102.629 110.275 102.691 110.341 102.733 110.42C102.774 110.499 102.793 110.587 102.789 110.676C102.784 110.766 102.756 110.852 102.706 110.926L98.8807 116.719C98.8363 116.786 98.7763 116.841 98.7061 116.878C98.636 116.916 98.5577 116.936 98.4783 116.935Z" fill="#F09199"/>
</g>
<path fill-rule="evenodd" clip-rule="evenodd" d="M193.684 21V37.1762H214.606C217.656 37.1762 220.298 37.9612 222.459 39.4158C224.588 40.8479 225.94 42.7188 226.785 44.4256C227.62 46.1113 228.011 47.7318 228.202 48.8853C228.299 49.4748 228.35 49.9779 228.376 50.3547C228.39 50.544 228.397 50.7041 228.401 50.8302C228.404 50.8934 228.405 50.9482 228.406 50.9943L228.406 51.0567L228.406 51.0829L228.406 51.0948L228.406 51.1004C228.406 51.1031 228.406 51.1057 223.065 51.1057C228.406 51.1057 228.406 51.1058 228.406 51.1058V69.978C228.406 73.0559 227.629 75.7228 226.188 77.9047C224.769 80.0528 222.915 81.4176 221.224 82.2711C219.554 83.1139 217.949 83.5085 216.806 83.7007C216.222 83.799 215.724 83.8502 215.35 83.8771C215.163 83.8906 215.004 83.8982 214.879 83.9024C214.817 83.9045 214.762 83.9058 214.717 83.9065L214.693 83.9069L214.655 83.9073L214.629 83.9074L214.617 83.9075L214.612 83.9075C214.609 83.9075 214.606 83.9075 214.606 78.5154L214.606 83.9075H197.245C194.085 83.9075 191.359 83.0944 189.135 81.5977C186.944 80.1235 185.55 78.1964 184.677 76.4334C183.814 74.6915 183.409 73.0149 183.212 71.8193C183.111 71.2087 183.058 70.688 183.031 70.299C183.017 70.1035 183.009 69.9386 183.005 69.8092C183.003 69.7444 183.002 69.6883 183.001 69.6414L183 69.5779L183 69.5515L183 69.5396L183 69.534C183 69.5313 183 69.5286 188.342 69.5286H183V21H193.684ZM193.686 69.5006L193.688 69.5306C193.695 69.633 193.712 69.8145 193.75 70.0464C193.831 70.5357 193.983 71.1058 194.233 71.6106C194.472 72.0943 194.748 72.414 195.061 72.6248C195.341 72.813 195.954 73.1233 197.245 73.1233H214.543C214.554 73.1228 214.569 73.1218 214.589 73.1204C214.679 73.1139 214.841 73.0985 215.05 73.0633C215.493 72.9888 216.002 72.8497 216.447 72.6254C216.87 72.4117 217.131 72.1757 217.298 71.9227C217.443 71.7035 217.723 71.1688 217.723 69.978V51.1701L217.722 51.1558L217.72 51.1231C217.713 51.033 217.698 50.869 217.663 50.6582C217.589 50.211 217.452 49.697 217.229 49.2484C217.018 48.8209 216.784 48.5574 216.533 48.3887C216.316 48.2426 215.786 47.9604 214.606 47.9604H193.684V69.4682L193.686 69.5006ZM235.529 37.1762H267.135C270.185 37.1762 272.827 37.9612 274.988 39.4158C277.117 40.8479 278.469 42.7188 279.314 44.4256C280.149 46.1113 280.54 47.7318 280.731 48.8853C280.828 49.4748 280.879 49.9779 280.905 50.3547C280.919 50.544 280.926 50.7041 280.93 50.8302C280.933 50.8934 280.934 50.9482 280.935 50.9943L280.935 51.0567L280.935 51.0829L280.935 51.0948L280.935 51.1004C280.935 51.1031 280.935 51.1057 275.594 51.1057L280.935 51.1058V69.978C280.935 73.0559 280.158 75.7228 278.717 77.9047C277.298 80.0528 275.444 81.4176 273.754 82.271C272.083 83.1139 270.478 83.5085 269.335 83.7007C268.751 83.799 268.253 83.8502 267.88 83.8771C267.692 83.8906 267.533 83.8982 267.408 83.9024C267.346 83.9045 267.292 83.9058 267.246 83.9065L267.184 83.9073L267.158 83.9074L267.146 83.9075L267.141 83.9075C267.138 83.9075 267.135 83.9075 267.135 78.5154L267.135 83.9075H249.774C246.614 83.9075 243.888 83.0944 241.664 81.5977C239.473 80.1235 238.079 78.1964 237.206 76.4334C236.343 74.6915 235.938 73.0149 235.741 71.8193C235.64 71.2087 235.588 70.688 235.56 70.299C235.546 70.1035 235.538 69.9386 235.534 69.8092L235.533 69.7637L235.532 69.7163L235.531 69.6707L235.53 69.6414L235.529 69.5779L235.529 69.5515L235.529 69.5396L235.529 69.534C235.529 69.5313 235.529 69.5286 240.871 69.5286H235.529V54.9251H270.252V51.1701C270.251 51.159 270.25 51.1432 270.249 51.1231C270.242 51.033 270.227 50.869 270.192 50.6582C270.118 50.211 269.981 49.697 269.758 49.2484C269.547 48.8209 269.313 48.5574 269.062 48.3887C268.845 48.2426 268.315 47.9604 267.135 47.9604H235.529V37.1762ZM270.252 65.7093H246.213V69.4682L246.214 69.4914L246.217 69.5306C246.224 69.633 246.241 69.8145 246.279 70.0464C246.36 70.5357 246.512 71.1058 246.762 71.6106C247.001 72.0943 247.277 72.414 247.59 72.6248C247.87 72.813 248.483 73.1233 249.774 73.1233H267.072C267.083 73.1228 267.098 73.1218 267.118 73.1204C267.208 73.1139 267.37 73.0985 267.579 73.0633C268.022 72.9888 268.531 72.8497 268.976 72.6254C269.399 72.4117 269.66 72.1757 269.827 71.9227C269.972 71.7035 270.252 71.1688 270.252 69.978V65.7093ZM319.665 37.1762H288.058V83.9075H298.742V47.9604H319.665C320.844 47.9604 321.374 48.2426 321.591 48.3887C321.842 48.5574 322.076 48.8209 322.287 49.2484C322.51 49.697 322.647 50.211 322.721 50.6582C322.756 50.869 322.771 51.033 322.778 51.1231C322.779 51.1432 322.78 51.159 322.781 51.1701V83.9075H333.465V51.1057H328.123C333.465 51.1057 333.465 51.1031 333.465 51.1004L333.465 51.0948L333.464 51.0829L333.464 51.0567L333.464 50.9943C333.463 50.9482 333.462 50.8934 333.459 50.8302C333.455 50.7041 333.448 50.544 333.434 50.3547C333.408 49.9779 333.357 49.4748 333.26 48.8853C333.069 47.7318 332.678 46.1113 331.843 44.4256C330.998 42.7188 329.646 40.8479 327.518 39.4158C325.356 37.9612 322.714 37.1762 319.665 37.1762ZM354.832 37.1762H372.194C375.243 37.1762 377.885 37.9612 380.047 39.4158C382.175 40.8479 383.527 42.7188 384.372 44.4256C385.207 46.1113 385.598 47.7318 385.789 48.8853C385.886 49.4748 385.937 49.9779 385.963 50.3547C385.977 50.544 385.984 50.7041 385.989 50.8302C385.99 50.87 385.991 50.9066 385.992 50.9397L385.993 50.9943L385.993 51.0567L385.994 51.0829L385.994 51.0948L385.994 51.1004C385.994 51.1031 385.994 51.1057 380.652 51.1057H385.994V87.5022C385.994 90.5801 385.216 93.247 383.775 95.4289C382.356 97.577 380.503 98.9419 378.812 99.7953C377.142 100.638 375.536 101.033 374.393 101.225C373.809 101.323 373.311 101.374 372.938 101.401C372.75 101.415 372.591 101.422 372.467 101.427C372.404 101.429 372.35 101.43 372.304 101.431L372.273 101.431L372.242 101.432L372.216 101.432L372.199 101.432C372.196 101.432 372.194 101.432 372.194 96.0396V101.432H340.587V90.6476H372.13C372.141 90.647 372.156 90.646 372.176 90.6446C372.266 90.6382 372.428 90.6227 372.637 90.5875C373.08 90.513 373.589 90.374 374.034 90.1497C374.457 89.9359 374.718 89.6999 374.885 89.4469C375.03 89.2277 375.31 88.693 375.31 87.5022V83.9075H354.832C351.672 83.9075 348.946 83.0944 346.722 81.5977C344.531 80.1235 343.137 78.1964 342.264 76.4334C341.401 74.6915 340.996 73.0149 340.799 71.8193C340.698 71.2087 340.646 70.688 340.618 70.299C340.604 70.1035 340.597 69.9386 340.592 69.8092C340.59 69.7444 340.589 69.6883 340.588 69.6414L340.587 69.5779L340.587 69.5515L340.587 69.5396L340.587 69.534C340.587 69.5313 340.587 69.5286 345.929 69.5286C340.587 69.5286 340.587 69.5286 340.587 69.5285V51.1057C340.587 47.9692 341.424 45.2639 342.947 43.0727C344.438 40.9291 346.364 39.5916 348.089 38.7649C349.798 37.9452 351.44 37.5623 352.606 37.376C353.202 37.2807 353.71 37.2312 354.088 37.2053C354.278 37.1922 354.438 37.185 354.563 37.181C354.626 37.179 354.68 37.1778 354.725 37.1771L354.786 37.1764L354.811 37.1763L354.822 37.1762L354.827 37.1762C354.83 37.1762 354.832 37.1762 354.832 42.5683V37.1762ZM354.886 47.9604C354.871 47.961 354.846 47.9623 354.811 47.9647C354.703 47.9721 354.515 47.9893 354.277 48.0274C353.773 48.1078 353.189 48.2586 352.673 48.506C352.171 48.7465 351.872 49.0097 351.693 49.2674C351.547 49.4773 351.271 49.9735 351.271 51.1057V69.4682C351.272 69.4818 351.273 69.5029 351.275 69.5306C351.282 69.633 351.299 69.8145 351.337 70.0464C351.418 70.5357 351.57 71.1058 351.82 71.6106C352.06 72.0943 352.335 72.414 352.648 72.6248C352.928 72.813 353.541 73.1233 354.832 73.1233H375.31V51.1701C375.309 51.159 375.308 51.1432 375.307 51.1231C375.3 51.033 375.285 50.869 375.25 50.6582C375.176 50.211 375.039 49.697 374.816 49.2484C374.605 48.8209 374.371 48.5574 374.12 48.3887C373.903 48.2426 373.373 47.9604 372.194 47.9604H354.886ZM424.705 73.1204C424.686 73.1218 424.67 73.1228 424.659 73.1233H406.916C405.736 73.1233 405.207 72.8411 404.99 72.695C404.739 72.5263 404.505 72.2628 404.293 71.8353C404.071 71.3867 403.933 70.8727 403.859 70.4255C403.825 70.2147 403.809 70.0507 403.803 69.9606C403.802 69.9405 403.801 69.9247 403.8 69.9136V37.1762L393.116 37.1762L393.116 69.978H398.458C393.116 69.978 393.116 69.9806 393.116 69.9833V69.9889L393.116 70.0008L393.116 70.027L393.117 70.0894C393.118 70.1355 393.119 70.1903 393.121 70.2535C393.125 70.3796 393.133 70.5397 393.146 70.729C393.173 71.1058 393.224 71.6089 393.321 72.1984C393.511 73.3519 393.902 74.9724 394.737 76.6581C395.583 78.3649 396.935 80.2358 399.063 81.6679C401.225 83.1225 403.867 83.9075 406.916 83.9075H424.723V78.5154C424.723 83.9075 424.725 83.9075 424.728 83.9075L424.733 83.9075L424.745 83.9074L424.771 83.9073L424.833 83.9065C424.879 83.9058 424.933 83.9045 424.996 83.9024C425.12 83.8982 425.279 83.8906 425.467 83.8771C425.84 83.8502 426.338 83.799 426.922 83.7007C428.065 83.5085 429.671 83.1139 431.341 82.2711C433.032 81.4176 434.885 80.0528 436.304 77.9047C437.745 75.7228 438.523 73.0559 438.523 69.978V37.1762H427.839V69.978C427.839 71.1688 427.559 71.7035 427.414 71.9227C427.247 72.1757 426.986 72.4117 426.563 72.6254C426.118 72.8497 425.609 72.9888 425.166 73.0633C424.957 73.0985 424.795 73.1139 424.705 73.1204ZM483.255 37.1762H496.394C499.443 37.1762 502.085 37.9612 504.247 39.4158C506.375 40.8479 507.727 42.7188 508.572 44.4256C509.407 46.1113 509.798 47.7318 509.989 48.8853C510.086 49.4748 510.137 49.9779 510.163 50.3547C510.177 50.544 510.184 50.7041 510.189 50.8302C510.19 50.8692 510.191 50.905 510.191 50.9375L510.193 50.9943L510.193 51.0258L510.193 51.0567L510.193 51.0829L510.194 51.1004C510.194 51.1031 510.194 51.1057 504.852 51.1057H510.194V83.9075H499.51V51.1701C499.509 51.159 499.508 51.1432 499.507 51.1231C499.5 51.033 499.485 50.869 499.45 50.6582C499.376 50.211 499.239 49.697 499.016 49.2484C498.805 48.8209 498.571 48.5574 498.32 48.3887C498.103 48.2426 497.573 47.9604 496.394 47.9604H483.261V83.9075H472.577V47.9604H456.329V83.9075H445.645V37.1762H472.139L460.565 25.4934L464.342 21.6806L477.697 35.1608L491.052 21.6806L494.829 25.4934L483.255 37.1762ZM517.316 83.9075L517.316 37.1762L528 37.1762L528 83.9075L517.316 83.9075ZM446.614 104.293V109.305H453.281V104.293H446.614ZM453.281 100.508H446.614V95.6361H453.281V100.508ZM453.281 113.09H446.614V118.312H453.281V113.09ZM457.482 118.312V91.8509H442.586V118.312H439.392V122.098H459.808V118.312H457.482ZM429.737 96.2708C430.721 94.3231 431.71 91.9723 432.308 90.1335L435.989 91.4303C434.715 93.8758 433.275 96.6297 432.016 98.5633C432.477 99.0746 432.897 99.5783 433.246 100.048C434.486 98.0465 435.622 96.0073 436.475 94.2692L439.982 95.7413C438.003 98.8458 435.529 102.449 433.275 105.303C434.418 105.251 435.604 105.196 436.803 105.137C436.424 104.295 436.017 103.468 435.607 102.716L438.558 101.419C439.947 103.767 441.336 106.817 441.787 108.849L438.628 110.321C438.513 109.772 438.333 109.131 438.104 108.442C437.455 108.492 436.807 108.542 436.162 108.59V123.044H432.447V108.859C430.579 108.99 428.817 109.105 427.273 109.2L426.926 105.555C427.704 105.53 428.572 105.498 429.507 105.462C430.043 104.783 430.592 104.039 431.14 103.256C430.101 101.697 428.414 99.8207 426.961 98.44L428.905 95.531C429.178 95.7656 429.457 96.0136 429.737 96.2708ZM438.28 118.312C437.968 116.49 437.065 113.651 436.232 111.513L439.287 110.497C440.19 112.6 441.128 115.333 441.544 117.121L438.28 118.312ZM426.579 118.873C427.586 116.805 428.141 113.686 428.419 110.707L431.857 111.303C431.51 114.667 430.746 118.172 429.739 120.415C429.01 119.96 427.447 119.224 426.579 118.873ZM393.141 103.066V99.6316H399.841C399.339 98.5333 398.562 97.1691 397.829 96.1268L399.462 95.5187C398.307 95.5555 397.169 95.5828 396.058 95.6011C395.954 94.6898 395.537 93.2528 395.19 92.4117C403.593 92.2014 413.315 91.5004 419.044 90.3088L421.683 93.358C419.887 93.7242 417.894 94.0403 415.782 94.3104L420.086 95.3557C419.146 96.9077 418.16 98.436 417.338 99.6316H424.253V103.066H414.504C417.469 105.152 421.522 106.881 425.398 107.833C424.461 108.674 423.28 110.321 422.655 111.373C421.858 111.121 421.057 110.827 420.259 110.495V122.939H416.058V121.958H401.544V123.079H397.551V110.327C396.638 110.747 395.719 111.122 394.808 111.443C394.252 110.497 393.106 108.99 392.238 108.219C395.891 107.139 399.758 105.248 402.605 103.066H393.141ZM410.607 104.229C412.545 106.116 414.925 107.812 417.456 109.165H399.846C402.271 107.825 404.57 106.188 406.475 104.391V108.569H410.607V104.229ZM410.607 99.6316H414.399L413.245 99.2812C414.023 97.8822 414.932 95.8521 415.428 94.355C413.873 94.5489 412.256 94.7182 410.607 94.8646V99.6316ZM406.475 95.1811C404.941 95.2812 403.4 95.3632 401.875 95.4285C402.713 96.5988 403.56 97.9982 403.94 99.0008L402.333 99.6316H406.475V95.1811ZM401.544 118.803H406.613V116.875H401.544V118.803ZM410.572 114.142H416.058V112.319H410.572V114.142ZM406.613 112.319H401.544V114.142H406.613V112.319ZM410.572 116.875V118.803H416.058V116.875H410.572ZM475.92 101.875V106.046H483.246V123.009H487.482V106.046H494.739V101.875H487.482V90.2387H483.246V101.875H475.92ZM463.489 100.858V104.013H474.704V100.858H463.489ZM463.697 91.185V94.3744H474.774V91.185H463.697ZM463.489 105.625V108.814H474.704V105.625H463.489ZM476.093 95.9165H461.788V99.2461H476.093V95.9165ZM466.996 113.826H470.954V117.822H466.996V113.826ZM474.6 121.151H466.996V122.553H463.385V110.497H465.399H466.996H474.6V121.151ZM502.344 116.981V98.44H498.316V123.009H502.344V120.941H523.385V122.974H527.448V98.44H523.385V116.981H502.344ZM497.239 96.1268V92.2014H528.524V96.1268H514.844V98.9307H521.129V114.948H504.531V98.9307H510.608V96.1268H497.239ZM510.955 102.365H507.969V105.309H510.955V102.365ZM514.531 105.309V102.365H517.552V105.309H514.531ZM510.955 108.534H507.969V111.513H510.955V108.534ZM514.531 111.513V108.534H517.552V111.513H514.531Z" fill="#F09199"/>
</svg>
