<svg width="220" height="66" viewBox="0 0 220 66" fill="none" xmlns="http://www.w3.org/2000/svg">
<mask id="mask0_1271_3703" style="mask-type:alpha" maskUnits="userSpaceOnUse" x="0" y="0" width="67" height="66">
<rect width="66.6667" height="66" fill="#C4C4C4"/>
</mask>
<g mask="url(#mask0_1271_3703)">
<path fill-rule="evenodd" clip-rule="evenodd" d="M38.9899 13.5179C38.9899 13.5179 33.3333 11.4925 27.6768 13.5179C27.6768 13.5179 28.0808 14.328 28.4848 16.961C27.6768 14.328 22.4242 5.41627 15.9596 1.36548C15.9596 15.2105 22.9329 18.313 24.0828 18.7305L20.6061 17.5687C15.9596 18.7839 6.66666 54.2283 6.66666 60.3045C6.66666 61.5198 7.87879 65.1655 10.303 65.1655C11.7172 65.1655 25.2525 65.0952 25.2525 65.0952C25.2525 65.0952 25.2525 54.4309 30.9091 54.4309V52.2029C30.9091 52.2029 23.0303 52.2029 20.8081 46.5318L21.0223 59.4944C20.202 54.4309 20.202 45.114 20.202 45.114C20.202 44.9856 20.2009 44.8249 20.1995 44.6352C20.1757 41.2343 20.0862 28.4943 25.2525 24.6575C22.7273 27.5944 22.2222 33.7718 22.2222 33.7718C22.7273 34.9871 24.5454 35.2909 24.5454 35.2909C24.5454 35.2909 24.9495 33.6706 26.0606 32.354C26.0606 32.354 25.7576 36.8099 32.5252 36.8099C32.5252 36.8099 31.9192 35.3921 32.3232 33.9744C32.3232 33.9744 33.5353 36.2023 36.9697 35.9998C36.9697 35.9998 37.6768 34.7845 37.5757 33.7718C37.5757 33.7718 38.8889 35.2909 41.2121 35.3921C41.2121 35.3921 41.4141 34.2782 41.4141 33.3667C41.4141 33.3667 42.7273 35.2909 44.8485 35.2909C44.5454 31.2401 43.2323 28.1007 41.4141 24.6575C46.5016 29.7581 46.4808 38.2425 46.4661 44.2009C46.4654 44.5124 46.4646 44.8171 46.4646 45.114C46.4646 45.114 46.4646 54.4309 45.6565 59.4944L45.8586 46.5318C43.6363 52.2029 35.7576 52.2029 35.7576 52.2029V54.4309C41.4141 54.4309 41.4141 65.1655 41.4141 65.1655H56.3636C58.5858 65.1655 60 61.5198 60 60.3045C60 54.2283 50.7071 18.7839 46.0606 17.5687L42.6543 18.707C43.9918 18.2116 50.7071 15.0432 50.7071 1.36548C44.2424 5.41627 38.9899 14.328 37.9798 16.961C38.5859 14.328 38.9899 13.5179 38.9899 13.5179ZM42.4242 18.7839C42.4242 18.7839 42.5064 18.7618 42.6543 18.707L42.4242 18.7839ZM24.2424 18.7839L24.0828 18.7305C24.1861 18.7681 24.2424 18.7839 24.2424 18.7839ZM24.6464 36.6074C28.8889 36.7086 30.202 40.0506 30.303 40.6582L29.697 40.2531C29.697 40.2531 29.4949 46.228 25.6565 46.3293C21.7896 46.4313 21.8088 42.0681 21.8174 40.0964C21.8178 40.0087 21.8182 39.9257 21.8182 39.848C21.4141 40.8607 21.0101 43.2912 21.0101 43.2912C21.0101 41.1645 21.5151 36.5326 24.6464 36.6074ZM36.3636 40.6582C36.4646 40.0506 37.7778 36.7086 42.0202 36.6074C45.1515 36.5326 45.6565 41.1645 45.6565 43.2912C45.6565 43.2912 45.2525 40.8607 44.8485 39.848C44.8485 39.8853 44.8485 39.9237 44.8487 39.9633C44.8488 40.0064 44.849 40.0508 44.8492 40.0964C44.8579 42.0681 44.877 46.4313 41.0101 46.3293C37.1717 46.228 36.9697 40.2531 36.9697 40.2531L36.3636 40.6582ZM25.4771 44.1014C25.4536 44.1013 25.4304 44.0972 25.4084 44.0892C25.3659 44.0736 25.3299 44.0442 25.3061 44.0056C25.2823 43.9671 25.272 43.9216 25.2771 43.8765L25.4326 42.4405H24.2427C24.206 42.4406 24.17 42.4306 24.1385 42.4117C24.107 42.3928 24.0813 42.3656 24.0641 42.3331C24.0468 42.3007 24.0387 42.2641 24.0407 42.2273C24.0426 42.1906 24.0545 42.1551 24.075 42.1246L25.669 39.7346C25.6942 39.6972 25.7311 39.6693 25.774 39.6554C25.8168 39.6414 25.863 39.6422 25.9054 39.6576C25.946 39.6728 25.9808 39.7007 26.0044 39.7371C26.0281 39.7736 26.0394 39.8168 26.0367 39.8602L25.8811 41.3063H27.071C27.1077 41.3063 27.1437 41.3162 27.1752 41.3352C27.2067 41.3541 27.2324 41.3812 27.2497 41.4137C27.2669 41.4462 27.275 41.4828 27.2731 41.5195C27.2711 41.5563 27.2592 41.5918 27.2387 41.6223L25.6447 44.0122C25.6262 44.0397 25.6012 44.0622 25.572 44.0778C25.5428 44.0933 25.5102 44.1014 25.4771 44.1014ZM41.0326 44.1014C41.0092 44.1013 40.986 44.0972 40.9639 44.0892C40.9215 44.0736 40.8854 44.0442 40.8616 44.0056C40.8378 43.9671 40.8276 43.9216 40.8326 43.8765L40.9882 42.4405H39.7983C39.7616 42.4406 39.7256 42.4306 39.6941 42.4117C39.6626 42.3928 39.6369 42.3656 39.6196 42.3331C39.6024 42.3007 39.5943 42.2641 39.5962 42.2273C39.5982 42.1906 39.6101 42.1551 39.6306 42.1246L41.2245 39.7346C41.2498 39.6972 41.2867 39.6693 41.3295 39.6554C41.3723 39.6414 41.4186 39.6422 41.4609 39.6576C41.5016 39.6728 41.5363 39.7007 41.56 39.7371C41.5836 39.7736 41.5949 39.8168 41.5922 39.8602L41.4367 41.3063H42.6266C42.6633 41.3063 42.6993 41.3162 42.7308 41.3352C42.7622 41.3541 42.788 41.3812 42.8052 41.4137C42.8225 41.4462 42.8305 41.4828 42.8286 41.5195C42.8267 41.5563 42.8148 41.5918 42.7942 41.6223L41.2003 44.0122C41.1818 44.0397 41.1568 44.0622 41.1275 44.0778C41.0983 44.0933 41.0657 44.1014 41.0326 44.1014Z" fill="#F09199"/>
</g>
<path d="M84.26 18.94V24.14H95.82V18.94H84.26ZM93.72 22.3H86.36V20.76H93.72V22.3ZM86.5 24.26L84.54 25C85.1 25.5 85.6 26.02 86.02 26.58H81.32V28.56H98.64V26.58H94.28C94.68 26.06 95.06 25.5 95.42 24.9L93.48 24.2C93.06 25.02 92.58 25.82 92.02 26.58H88.24C87.72 25.7 87.14 24.92 86.5 24.26ZM83.36 13.24L81.96 14.56C82.88 15.2 83.66 15.82 84.32 16.42C83.32 17.12 82.14 17.74 80.74 18.28L82.02 19.92C83.9 19.14 85.48 18.2 86.76 17.08V17.72H94.1V16.98C95.26 18.04 96.62 19 98.18 19.88L99.56 18.28C98.48 17.74 97.52 17.14 96.64 16.5C97.44 15.88 98.16 15.18 98.76 14.42L97.3 13.14C96.7 13.92 96 14.64 95.16 15.28C94.76 14.92 94.4 14.56 94.08 14.16C94.9 13.56 95.62 12.88 96.22 12.16L94.76 10.86C94.26 11.5 93.66 12.1 92.96 12.66C92.52 12 92.14 11.3 91.82 10.56L90.08 11.52C90.78 13.08 91.74 14.5 92.94 15.82H87.98C88.76 14.9 89.38 13.86 89.84 12.7V11.14H82.94V13.06H87.48C87.04 13.82 86.48 14.54 85.78 15.22C85.1 14.58 84.28 13.92 83.36 13.24ZM103.36 11.16V13.04H113.16V14.44H104.04V16.24H113.16V17.62H101.36V19.52H108.84V21.72C106.64 23.6 104.06 25.2 101.06 26.56L101.9 28.5C104.56 27.12 106.88 25.58 108.84 23.86V26.48C108.84 27 108.68 27.28 108.38 27.28C107.7 27.28 107 27.22 106.28 27.14L106.74 29.1H109.08C110.3 29.1 110.92 28.38 110.92 26.98V23.78C112.64 25.64 114.9 27.22 117.7 28.54L118.76 26.7C116.8 25.86 115.08 24.92 113.6 23.84C114.92 23.12 116.1 22.1 117.14 20.82L115.56 19.52H118.66V17.62H115.28V11.16H103.36ZM103.86 19.82L102.48 21.14C103.76 22.02 104.74 22.82 105.44 23.58L106.8 22.22C106 21.42 105.02 20.62 103.86 19.82ZM115.52 19.52C114.58 20.88 113.46 21.94 112.18 22.7C111.72 22.3 111.3 21.9 110.92 21.48V19.52H115.52ZM121.56 11.38V13.38H126.66C125.38 15.32 123.84 16.78 122.04 17.78L122.6 19.58C126.84 19.38 130.98 18.96 135.02 18.36C135.48 18.96 135.9 19.56 136.3 20.16L138.02 18.94C137.04 17.5 135.64 15.82 133.8 13.88L132.1 14.96C132.62 15.52 133.1 16.06 133.58 16.62C130.98 17.02 128.34 17.32 125.64 17.52C126.92 16.4 128.06 15.02 129.1 13.38H138.36V11.38H121.56ZM122.38 21.74V23.72H128.94V26.32H121.12V28.36H138.88V26.32H131.06V23.72H137.48V21.74H131.06V19.8H128.94V21.74H122.38ZM82.24 34.152V57H92.736C95.168 57 97.088 56.552 98.432 55.656C100 54.568 100.8 52.872 100.8 50.568C100.8 49.032 100.416 47.784 99.68 46.888C98.912 45.96 97.792 45.352 96.288 45.064C97.44 44.616 98.304 44.008 98.912 43.176C99.52 42.28 99.84 41.192 99.84 39.912C99.84 38.184 99.232 36.808 98.048 35.784C96.768 34.696 94.976 34.152 92.704 34.152H82.24ZM85.984 37.224H91.776C93.312 37.224 94.4 37.48 95.104 37.992C95.744 38.472 96.096 39.272 96.096 40.36C96.096 41.544 95.744 42.408 95.104 42.952C94.432 43.464 93.312 43.752 91.712 43.752H85.984V37.224ZM85.984 46.824H92.288C93.952 46.824 95.168 47.112 95.936 47.688C96.672 48.264 97.056 49.192 97.056 50.504C97.056 51.784 96.544 52.68 95.52 53.256C94.72 53.704 93.6 53.928 92.192 53.928H85.984V46.824ZM111.534 40.008C109.422 40.008 107.758 40.36 106.542 41.128C105.102 41.96 104.206 43.304 103.854 45.128L107.47 45.416C107.662 44.552 108.142 43.912 108.846 43.496C109.454 43.112 110.254 42.952 111.278 42.952C113.646 42.952 114.83 44.008 114.83 46.184V46.824L111.214 46.92C108.782 46.984 106.894 47.496 105.55 48.456C104.078 49.448 103.374 50.888 103.374 52.744C103.374 54.12 103.886 55.24 104.91 56.136C105.902 57 107.246 57.448 108.974 57.448C110.414 57.448 111.662 57.192 112.718 56.712C113.646 56.264 114.446 55.656 115.086 54.824V57H118.478V46.44C118.478 44.424 117.966 42.888 116.942 41.832C115.79 40.616 113.966 40.008 111.534 40.008ZM114.83 49.448V50.28C114.83 51.56 114.318 52.616 113.358 53.448C112.398 54.248 111.214 54.664 109.806 54.664C109.006 54.664 108.366 54.44 107.854 54.056C107.342 53.672 107.118 53.192 107.118 52.616C107.118 50.632 108.558 49.608 111.47 49.544L114.83 49.448ZM130.87 40.008C129.878 40.008 128.982 40.2 128.15 40.616C127.35 41 126.614 41.608 125.974 42.376V40.456H122.326V57H125.974V47.048C126.102 45.736 126.55 44.712 127.318 44.008C127.99 43.368 128.79 43.048 129.686 43.048C132.182 43.048 133.43 44.392 133.43 47.112V57H137.078V46.792C137.078 42.248 134.998 40.008 130.87 40.008ZM147.8 40.008C145.56 40.008 143.736 40.776 142.36 42.312C140.952 43.848 140.28 45.864 140.28 48.36C140.28 50.856 140.952 52.872 142.36 54.376C143.736 55.848 145.56 56.616 147.8 56.616C149.848 56.616 151.48 55.752 152.696 54.056V56.488C152.696 59.432 151.32 60.904 148.568 60.904C147.288 60.904 146.36 60.712 145.784 60.36C145.176 59.976 144.792 59.336 144.6 58.408H140.952C141.272 60.264 142.04 61.608 143.256 62.504C144.472 63.336 146.232 63.784 148.568 63.784C153.752 63.784 156.344 61.16 156.344 55.944V40.456H152.696V42.472C151.48 40.808 149.848 40.008 147.8 40.008ZM148.376 42.952C149.752 42.952 150.84 43.432 151.608 44.392C152.344 45.352 152.728 46.664 152.728 48.36C152.728 50.024 152.344 51.304 151.608 52.264C150.84 53.16 149.752 53.64 148.344 53.64C146.744 53.64 145.624 53.096 144.92 52.04C144.312 51.144 144.024 49.928 144.024 48.36C144.024 46.632 144.408 45.32 145.176 44.392C145.944 43.432 147 42.952 148.376 42.952ZM160.17 40.456V50.76C160.17 55.208 162.154 57.448 166.122 57.448C168.17 57.448 169.898 56.584 171.306 54.856V57H174.954V40.456H171.306V50.568C170.986 51.752 170.442 52.68 169.706 53.384C168.97 54.056 168.202 54.408 167.402 54.408C166.122 54.408 165.226 54.088 164.65 53.48C164.074 52.84 163.818 51.88 163.818 50.536V40.456H160.17ZM186.923 40.008C185.323 40.008 183.819 40.712 182.443 42.152V40.456H178.795V57H182.443V47.08C182.443 45.992 182.763 45.032 183.403 44.264C184.043 43.432 184.875 43.048 185.931 43.048C188.107 43.048 189.195 44.296 189.195 46.824V57H192.843V46.888C192.843 45.672 193.131 44.744 193.771 44.072C194.379 43.368 195.115 43.048 196.011 43.048C197.291 43.048 198.187 43.336 198.763 43.944C199.307 44.52 199.595 45.48 199.595 46.792V57H203.243V46.152C203.243 44.328 202.667 42.856 201.579 41.704C200.427 40.552 199.019 40.008 197.323 40.008C196.203 40.008 195.275 40.2 194.539 40.584C193.707 40.968 192.907 41.672 192.139 42.696C191.083 40.904 189.355 40.008 186.923 40.008ZM209.54 33.704C208.836 33.704 208.26 33.928 207.78 34.376C207.3 34.824 207.076 35.4 207.076 36.104C207.076 36.808 207.3 37.384 207.78 37.864C208.26 38.312 208.836 38.536 209.54 38.536C210.244 38.536 210.82 38.312 211.3 37.864C211.78 37.416 212.036 36.808 212.036 36.104C212.036 35.4 211.78 34.824 211.332 34.376C210.852 33.928 210.244 33.704 209.54 33.704ZM207.716 40.456V57H211.364V40.456H207.716Z" fill="#F09199"/>
</svg>
