<svg width="15" height="14" viewBox="0 0 15 14" fill="none" xmlns="http://www.w3.org/2000/svg">
    <path d="M14.7501 12.4444V1.55556C14.7501 0.7 14.0501 0 13.1945 0H2.30562C1.45006 0 0.750061 0.7 0.750061 1.55556V12.4444C0.750061 13.3 1.45006 14 2.30562 14H13.1945C14.0501 14 14.7501 13.3 14.7501 12.4444ZM5.33895 8.54L6.97228 10.5078L9.3834 7.40444C9.53895 7.20222 9.85006 7.20222 10.0056 7.41222L12.7356 11.0522C12.7789 11.11 12.8053 11.1787 12.8118 11.2506C12.8183 11.3226 12.8046 11.3949 12.7723 11.4595C12.74 11.5241 12.6904 11.5784 12.629 11.6164C12.5675 11.6543 12.4967 11.6744 12.4245 11.6744H3.09895C2.77228 11.6744 2.59339 11.3011 2.79562 11.0444L4.73228 8.55556C4.88006 8.35333 5.17562 8.34556 5.33895 8.54Z" fill="#AAA6A6"/>
</svg>
