<svg width="13" height="14" viewBox="0 0 13 14" fill="currentColor" xmlns="http://www.w3.org/2000/svg">
<path d="M5.95833 2.66667L7.04167 2.66667C7.18837 2.66667 7.31532 2.72027 7.42253 2.82747C7.52973 2.93468 7.58333 3.06163 7.58333 3.20833L7.58333 7.45703L9.18294 5.85742C9.29015 5.75022 9.4171 5.69661 9.5638 5.69661C9.7105 5.69661 9.83746 5.75022 9.94466 5.85742L10.7148 6.6276C10.8164 6.72917 10.8672 6.85612 10.8672 7.00846C10.8672 7.16081 10.8164 7.28776 10.7148 7.38932L7.65104 10.4531L6.88086 11.2233C6.7793 11.3249 6.65234 11.3757 6.5 11.3757C6.34766 11.3757 6.2207 11.3249 6.11914 11.2233L5.34896 10.4531L2.28516 7.38932C2.18359 7.28776 2.13281 7.16081 2.13281 7.00846C2.13281 6.85612 2.18359 6.72917 2.28516 6.6276L3.05534 5.85742C3.1569 5.75586 3.28385 5.70508 3.4362 5.70508C3.58854 5.70508 3.71549 5.75586 3.81706 5.85742L5.41667 7.45703L5.41667 3.20833C5.41667 3.06163 5.47027 2.93468 5.57747 2.82747C5.68468 2.72027 5.81163 2.66667 5.95833 2.66667ZM6.5 0.5C5.32075 0.5 4.23318 0.790581 3.2373 1.37174C2.24143 1.95291 1.45291 2.74143 0.871744 3.7373C0.290581 4.73318 9.15742e-08 5.82075 7.75117e-08 7C6.34493e-08 8.17925 0.290581 9.26682 0.871744 10.2627C1.45291 11.2586 2.24143 12.0471 3.2373 12.6283C4.23318 13.2094 5.32075 13.5 6.5 13.5C7.67925 13.5 8.76682 13.2094 9.7627 12.6283C10.7586 12.0471 11.5471 11.2586 12.1283 10.2627C12.7094 9.26682 13 8.17925 13 7C13 5.82075 12.7094 4.73318 12.1283 3.7373C11.5471 2.74143 10.7586 1.95291 9.7627 1.37174C8.76682 0.790581 7.67925 0.5 6.5 0.5Z" />
</svg>
