<svg width="13" height="14" viewBox="0 0 13 14" fill="currentColor" xmlns="http://www.w3.org/2000/svg">
<path d="M7.04167 11.3333L5.95833 11.3333C5.81163 11.3333 5.68468 11.2797 5.57747 11.1725C5.47027 11.0653 5.41667 10.9384 5.41667 10.7917L5.41667 6.54297L3.81706 8.14258C3.70985 8.24978 3.5829 8.30339 3.4362 8.30339C3.2895 8.30339 3.16254 8.24978 3.05534 8.14258L2.28516 7.3724C2.18359 7.27083 2.13281 7.14388 2.13281 6.99154C2.13281 6.83919 2.18359 6.71224 2.28516 6.61068L5.34896 3.54687L6.11914 2.77669C6.2207 2.67513 6.34766 2.62435 6.5 2.62435C6.65234 2.62435 6.7793 2.67513 6.88086 2.77669L7.65104 3.54687L10.7148 6.61068C10.8164 6.71224 10.8672 6.83919 10.8672 6.99154C10.8672 7.14388 10.8164 7.27083 10.7148 7.3724L9.94466 8.14258C9.8431 8.24414 9.71615 8.29492 9.5638 8.29492C9.41146 8.29492 9.28451 8.24414 9.18294 8.14258L7.58333 6.54297L7.58333 10.7917C7.58333 10.9384 7.52973 11.0653 7.42253 11.1725C7.31532 11.2797 7.18837 11.3333 7.04167 11.3333ZM6.5 13.5C7.67925 13.5 8.76682 13.2094 9.7627 12.6283C10.7586 12.0471 11.5471 11.2586 12.1283 10.2627C12.7094 9.26682 13 8.17925 13 7C13 5.82075 12.7094 4.73318 12.1283 3.7373C11.5471 2.74143 10.7586 1.95291 9.7627 1.37174C8.76682 0.790582 7.67925 0.5 6.5 0.5C5.32075 0.5 4.23318 0.790582 3.2373 1.37174C2.24143 1.95291 1.45291 2.74143 0.871745 3.7373C0.290582 4.73318 6.34493e-08 5.82075 7.75117e-08 7C9.15742e-08 8.17925 0.290582 9.26682 0.871745 10.2627C1.45291 11.2586 2.24143 12.0471 3.2373 12.6283C4.23318 13.2094 5.32075 13.5 6.5 13.5Z"/>
</svg>
