<svg width="13" height="14" viewBox="0 0 13 14" fill="currentColor" xmlns="http://www.w3.org/2000/svg">
    <path
        d="M2.16667 7.54167V6.45833C2.16667 6.31163 2.22027 6.18468 2.32747 6.07747C2.43468 5.97027 2.56163 5.91667 2.70833 5.91667H6.95703L5.35742 4.31706C5.25022 4.20985 5.19661 4.0829 5.19661 3.9362C5.19661 3.7895 5.25022 3.66254 5.35742 3.55534L6.1276 2.78516C6.22917 2.68359 6.35612 2.63281 6.50846 2.63281C6.66081 2.63281 6.78776 2.68359 6.88932 2.78516L9.95312 5.84896L10.7233 6.61914C10.8249 6.7207 10.8757 6.84766 10.8757 7C10.8757 7.15234 10.8249 7.2793 10.7233 7.38086L9.95312 8.15104L6.88932 11.2148C6.78776 11.3164 6.66081 11.3672 6.50846 11.3672C6.35612 11.3672 6.22917 11.3164 6.1276 11.2148L5.35742 10.4447C5.25586 10.3431 5.20508 10.2161 5.20508 10.0638C5.20508 9.91146 5.25586 9.78451 5.35742 9.68294L6.95703 8.08333H2.70833C2.56163 8.08333 2.43468 8.02973 2.32747 7.92253C2.22027 7.81532 2.16667 7.68837 2.16667 7.54167ZM-4.76837e-07 7C-4.76837e-07 8.17925 0.290581 9.26682 0.871744 10.2627C1.45291 11.2586 2.24143 12.0471 3.2373 12.6283C4.23318 13.2094 5.32075 13.5 6.5 13.5C7.67925 13.5 8.76682 13.2094 9.7627 12.6283C10.7586 12.0471 11.5471 11.2586 12.1283 10.2627C12.7094 9.26682 13 8.17925 13 7C13 5.82075 12.7094 4.73318 12.1283 3.7373C11.5471 2.74143 10.7586 1.95291 9.7627 1.37174C8.76682 0.790582 7.67925 0.5 6.5 0.5C5.32075 0.5 4.23318 0.790582 3.2373 1.37174C2.24143 1.95291 1.45291 2.74143 0.871744 3.7373C0.290581 4.73318 -4.76837e-07 5.82075 -4.76837e-07 7Z" />
</svg>