<svg width="22" height="21" viewBox="0 0 22 21" fill="none" xmlns="http://www.w3.org/2000/svg">
<path d="M21 13H20C20 9.12998 16.87 5.99998 13 5.99998H12V4.72997C12.3041 4.55439 12.5566 4.30184 12.7322 3.9977C12.9077 3.69357 13.0001 3.34857 13 2.99741C12.9999 2.64625 12.9074 2.3013 12.7317 1.99726C12.556 1.69321 12.3033 1.44079 11.9991 1.26536C11.6949 1.08994 11.3499 0.9977 10.9987 0.997925C10.6476 0.99815 10.3026 1.09083 9.99867 1.26664C9.69469 1.44246 9.44236 1.69521 9.26705 1.99948C9.09174 2.30375 8.99964 2.64881 9 2.99997C9 3.73997 9.4 4.38998 10 4.72997V5.99998H9C5.13 5.99998 2 9.12998 2 13H1C0.45 13 0 13.45 0 14V17C0 17.55 0.45 18 1 18H2V19C2 19.5304 2.21071 20.0391 2.58579 20.4142C2.96086 20.7893 3.46957 21 4 21H18C19.11 21 20 20.11 20 19V18H21C21.55 18 22 17.55 22 17V14C22 13.45 21.55 13 21 13ZM6.5 17C5.83696 17 5.20107 16.7366 4.73223 16.2677C4.26339 15.7989 4 15.163 4 14.5C4 13.68 4.4 12.96 5 12.5L8.83 15.38C8.5 16.32 7.57 17 6.5 17ZM15.5 17C14.43 17 13.5 16.32 13.17 15.38L17 12.5C17.6 12.96 18 13.68 18 14.5C18 15.163 17.7366 15.7989 17.2678 16.2677C16.7989 16.7366 16.163 17 15.5 17Z" fill="#EDE9E9"/>
</svg>
