<svg width="14" height="11" viewBox="0 0 14 11" fill="none" xmlns="http://www.w3.org/2000/svg">
<path d="M2.627 5.379C1.06 5.379 0 4.287 0 2.669C0 1.213 1.216 0 2.863 0C4.667 0 6 1.456 6 3.68C6 8.735 2.314 10.757 0 11V8.776C1.569 8.493 3.333 6.916 3.412 5.176C3.333 5.216 3.02 5.379 2.627 5.379V5.379ZM10.627 5.379C9.059 5.379 8 4.287 8 2.669C8 1.213 9.216 0 10.863 0C12.667 0 14 1.456 14 3.68C14 8.735 10.314 10.757 8 11V8.776C9.569 8.493 11.333 6.916 11.412 5.176C11.333 5.216 11.02 5.379 10.627 5.379Z" fill="#9F9B9B"/>
</svg>
