<svg width="17" height="16" viewBox="0 0 17 16" fill="currentcolor" xmlns="http://www.w3.org/2000/svg">
<path fill-rule="evenodd" clip-rule="evenodd" d="M2.27157 10.9423C0.227823 6.03542 3.9197 0.666504 9.33845 0.666504H9.63939C13.6875 0.666504 16.9688 3.87484 16.9688 7.833C16.9688 9.95588 16.1063 11.9918 14.5711 13.4929C13.0358 14.994 10.9536 15.8373 8.78251 15.8373H1.45126C1.35409 15.8375 1.25926 15.8082 1.17988 15.7534C1.1005 15.6986 1.0405 15.6211 1.00817 15.5315C0.975845 15.4419 0.972791 15.3447 0.999433 15.2533C1.02607 15.162 1.0811 15.081 1.15689 15.0215L3.00564 13.5704C3.08445 13.5086 3.14072 13.4235 3.16606 13.3279C3.1914 13.2322 3.18446 13.1311 3.14626 13.0397L2.27157 10.9423ZM10.0313 5.66234C10.0313 5.48 9.95718 5.30513 9.82532 5.1762C9.69346 5.04727 9.51462 4.97484 9.32814 4.97484C9.14166 4.97484 8.96281 5.04727 8.83095 5.1762C8.69909 5.30513 8.62501 5.48 8.62501 5.66234V7.49567H6.75001C6.56353 7.49567 6.38469 7.5681 6.25283 7.69703C6.12096 7.82597 6.04689 8.00083 6.04689 8.18317C6.04689 8.36551 6.12096 8.54038 6.25283 8.66931C6.38469 8.79824 6.56353 8.87067 6.75001 8.87067H8.62501V10.704C8.62501 10.8863 8.69909 11.0612 8.83095 11.1901C8.96281 11.3191 9.14166 11.3915 9.32814 11.3915C9.51462 11.3915 9.69346 11.3191 9.82532 11.1901C9.95718 11.0612 10.0313 10.8863 10.0313 10.704V8.87067H11.9063C12.0927 8.87067 12.2716 8.79824 12.4034 8.66931C12.5353 8.54038 12.6094 8.36551 12.6094 8.18317C12.6094 8.00083 12.5353 7.82597 12.4034 7.69703C12.2716 7.5681 12.0927 7.49567 11.9063 7.49567H10.0313V5.66234Z" />
</svg>
