<svg width="14" height="16" viewBox="0 0 14 16" fill="none" xmlns="http://www.w3.org/2000/svg">
<path d="M14 3.5122C14 3.70336 13.9337 3.88787 13.8138 4.03073C13.6939 4.17359 13.5286 4.26485 13.3494 4.28722L13.2632 4.29268H12.6405L11.7335 14.0644C11.6841 14.5946 11.4503 15.0864 11.0775 15.4442C10.7048 15.8019 10.2197 16.0001 9.71674 16H4.28326C3.78026 16.0001 3.29521 15.8019 2.92246 15.4442C2.54972 15.0864 2.31591 14.5946 2.26653 14.0644L1.35947 4.29268H0.736842C0.541419 4.29268 0.354001 4.21045 0.215816 4.06408C0.0776313 3.91771 0 3.71919 0 3.5122C0 3.3052 0.0776313 3.10668 0.215816 2.96031C0.354001 2.81394 0.541419 2.73171 0.736842 2.73171H4.42105C4.42105 2.37297 4.48776 2.01775 4.61736 1.68633C4.74697 1.3549 4.93693 1.05376 5.17641 0.800099C5.41589 0.546436 5.70019 0.34522 6.01308 0.207939C6.32597 0.0706577 6.66133 0 7 0C7.33867 0 7.67403 0.0706577 7.98692 0.207939C8.29981 0.34522 8.58411 0.546436 8.82359 0.800099C9.06307 1.05376 9.25303 1.3549 9.38264 1.68633C9.51224 2.01775 9.57895 2.37297 9.57895 2.73171H13.2632C13.4586 2.73171 13.646 2.81394 13.7842 2.96031C13.9224 3.10668 14 3.3052 14 3.5122ZM8.6579 6.04878C8.52435 6.04879 8.39533 6.10001 8.29468 6.19299C8.19404 6.28596 8.12858 6.4144 8.11042 6.55454L8.10526 6.63415V12.0976L8.11042 12.1772C8.12862 12.3173 8.19409 12.4457 8.29473 12.5386C8.39537 12.6315 8.52438 12.6827 8.6579 12.6827C8.79141 12.6827 8.92042 12.6315 9.02106 12.5386C9.1217 12.4457 9.18717 12.3173 9.20537 12.1772L9.21053 12.0976V6.63415L9.20537 6.55454C9.18721 6.4144 9.12175 6.28596 9.02111 6.19299C8.92046 6.10001 8.79144 6.04879 8.6579 6.04878ZM5.34211 6.04878C5.20856 6.04879 5.07954 6.10001 4.97889 6.19299C4.87825 6.28596 4.81279 6.4144 4.79463 6.55454L4.78947 6.63415V12.0976L4.79463 12.1772C4.81283 12.3173 4.8783 12.4457 4.97894 12.5386C5.07958 12.6315 5.20859 12.6827 5.34211 12.6827C5.47562 12.6827 5.60463 12.6315 5.70527 12.5386C5.80591 12.4457 5.87138 12.3173 5.88958 12.1772L5.89474 12.0976V6.63415L5.88958 6.55454C5.87142 6.4144 5.80596 6.28596 5.70532 6.19299C5.60467 6.10001 5.47565 6.04879 5.34211 6.04878ZM7 1.56098C6.70687 1.56098 6.42574 1.68432 6.21846 1.90388C6.01118 2.12343 5.89474 2.42121 5.89474 2.73171H8.10526C8.10526 2.42121 7.98882 2.12343 7.78154 1.90388C7.57426 1.68432 7.29313 1.56098 7 1.56098Z" fill="#9F9B9B"/>
</svg>
