<svg width="17" height="14" viewBox="0 0 17 14" fill="none" xmlns="http://www.w3.org/2000/svg">
<path d="M16.15 0C16.3582 2.8272e-05 16.5591 0.0787122 16.7147 0.221128C16.8703 0.363543 16.9697 0.559785 16.9941 0.772632L17 0.875008V6.56256C17.0001 7.34575 16.7086 8.0992 16.1857 8.66801C15.6627 9.23681 14.9479 9.57775 14.1882 9.62071L14.025 9.62508H2.90275L5.70095 12.5065C5.8473 12.6572 5.93522 12.8576 5.94821 13.0703C5.96119 13.2829 5.89836 13.4931 5.7715 13.6615L5.70095 13.7437C5.55459 13.8944 5.35985 13.9849 5.15328 13.9983C4.94671 14.0116 4.74249 13.947 4.57895 13.8164L4.49905 13.7437L0.24905 9.36871C0.219275 9.33816 0.191718 9.3054 0.1666 9.27071L0.10625 9.17445L0.0603501 9.0747L0.0306 8.98283L0.00934993 8.88045L0.00339996 8.82795L0 8.75008L0.00255002 8.68445L0.017 8.5742L0.0425 8.47707L0.0799001 8.37995L0.1241 8.2942L0.1785 8.2137L0.24905 8.13145L4.49905 3.75641C4.65201 3.59948 4.85727 3.50837 5.07313 3.50158C5.28898 3.4948 5.49926 3.57284 5.66124 3.71987C5.82322 3.86691 5.92476 4.07189 5.94524 4.2932C5.96572 4.51451 5.9036 4.73555 5.7715 4.91142L5.70095 4.99367L2.90275 7.87507H14.025C14.3418 7.87507 14.6473 7.75366 14.8819 7.53447C15.1165 7.31529 15.2634 7.01404 15.2941 6.68943L15.3 6.56256V0.875008C15.3 0.642941 15.3896 0.42038 15.549 0.256284C15.7084 0.0921882 15.9246 0 16.15 0Z" fill="#595555"/>
</svg>
