<svg width="14" height="12" viewBox="0 0 14 12" fill="none" xmlns="http://www.w3.org/2000/svg">
    <path fill-rule="evenodd" clip-rule="evenodd" d="M6.99951 12C5.40701 11.64 0.499512 8.82 0.499512 3.75C0.499512 2.96294 0.73798 2.19583 1.18114 1.55734C1.62429 0.918841 2.24967 0.441328 2.96869 0.192438C3.68771 -0.0564523 4.4639 -0.0641014 5.18734 0.170574C5.91077 0.40525 6.54477 0.870353 6.99951 1.5C7.45426 0.870353 8.08825 0.40525 8.81168 0.170574C9.53512 -0.0641014 10.3113 -0.0564523 11.0303 0.192438C11.7493 0.441328 12.3747 0.918841 12.8179 1.55734C13.261 2.19583 13.4995 2.96294 13.4995 3.75C13.4995 8.82 8.59201 11.64 6.99951 12Z" fill="#EB4476"/>
</svg>
