<svg width="13" height="14" viewBox="0 0 13 14" fill="none" xmlns="http://www.w3.org/2000/svg">
    <path d="M4.75006 1.5C4.75006 2.33 5.42006 3 6.25006 3H6.96006L3.54006 11H2.25006C1.42006 11 0.750061 11.67 0.750061 12.5C0.750061 13.33 1.42006 14 2.25006 14H7.25006C8.08006 14 8.75006 13.33 8.75006 12.5C8.75006 11.67 8.08006 11 7.25006 11H6.54006L9.96006 3H11.2501C12.0801 3 12.7501 2.33 12.7501 1.5C12.7501 0.67 12.0801 0 11.2501 0H6.25006C5.42006 0 4.75006 0.67 4.75006 1.5Z" fill="#9F9B9B"/>
</svg>
