<svg width="17" height="8" viewBox="0 0 17 8" fill="none" xmlns="http://www.w3.org/2000/svg">
    <path d="M12.7501 0H10.3501C9.91012 0 9.55012 0.36 9.55012 0.8C9.55012 1.24 9.91012 1.6 10.3501 1.6H12.7501C14.0701 1.6 15.1501 2.68 15.1501 4C15.1501 5.32 14.0701 6.4 12.7501 6.4H10.3501C9.91012 6.4 9.55012 6.76 9.55012 7.2C9.55012 7.64 9.91012 8 10.3501 8H12.7501C14.9581 8 16.7501 6.208 16.7501 4C16.7501 1.792 14.9581 0 12.7501 0ZM5.55012 4C5.55012 4.44 5.91012 4.8 6.35012 4.8H11.1501C11.5901 4.8 11.9501 4.44 11.9501 4C11.9501 3.56 11.5901 3.2 11.1501 3.2H6.35012C5.91012 3.2 5.55012 3.56 5.55012 4ZM7.15012 6.4H4.75012C3.43012 6.4 2.35012 5.32 2.35012 4C2.35012 2.68 3.43012 1.6 4.75012 1.6H7.15012C7.59012 1.6 7.95012 1.24 7.95012 0.8C7.95012 0.36 7.59012 0 7.15012 0H4.75012C2.54212 0 0.750122 1.792 0.750122 4C0.750122 6.208 2.54212 8 4.75012 8H7.15012C7.59012 8 7.95012 7.64 7.95012 7.2C7.95012 6.76 7.59012 6.4 7.15012 6.4Z" fill="#9F9B9B"/>
</svg>
