<svg width="14" height="4" viewBox="0 0 14 4" fill="currentColor" xmlns="http://www.w3.org/2000/svg">
<path d="M1.5 0.625C1.13533 0.625 0.785591 0.769865 0.527728 1.02773C0.269865 1.28559 0.125 1.63533 0.125 2C0.125 2.36467 0.269865 2.71441 0.527728 2.97227C0.785591 3.23013 1.13533 3.375 1.5 3.375C1.86467 3.375 2.21441 3.23013 2.47227 2.97227C2.73013 2.71441 2.875 2.36467 2.875 2C2.875 1.63533 2.73013 1.28559 2.47227 1.02773C2.21441 0.769865 1.86467 0.625 1.5 0.625ZM5.625 2C5.625 1.63533 5.76987 1.28559 6.02773 1.02773C6.28559 0.769865 6.63533 0.625 7 0.625C7.36467 0.625 7.71441 0.769865 7.97227 1.02773C8.23013 1.28559 8.375 1.63533 8.375 2C8.375 2.36467 8.23013 2.71441 7.97227 2.97227C7.71441 3.23013 7.36467 3.375 7 3.375C6.63533 3.375 6.28559 3.23013 6.02773 2.97227C5.76987 2.71441 5.625 2.36467 5.625 2ZM11.125 2C11.125 1.63533 11.2699 1.28559 11.5277 1.02773C11.7856 0.769865 12.1353 0.625 12.5 0.625C12.8647 0.625 13.2144 0.769865 13.4723 1.02773C13.7301 1.28559 13.875 1.63533 13.875 2C13.875 2.36467 13.7301 2.71441 13.4723 2.97227C13.2144 3.23013 12.8647 3.375 12.5 3.375C12.1353 3.375 11.7856 3.23013 11.5277 2.97227C11.2699 2.71441 11.125 2.36467 11.125 2Z" />
</svg>
