<svg width="16" height="18" viewBox="0 0 16 18" fill="none" xmlns="http://www.w3.org/2000/svg">
<path d="M1.45417 6.75C1.45417 4.95979 2.14382 3.2429 3.3714 1.97703C4.59898 0.711158 6.26394 0 8 0C9.73606 0 11.401 0.711158 12.6286 1.97703C13.8562 3.2429 14.5458 4.95979 14.5458 6.75V9.60524L15.9481 13.2217C15.9922 13.3355 16.0085 13.4587 15.9958 13.5804C15.9831 13.7022 15.9416 13.819 15.875 13.9204C15.8084 14.0218 15.7187 14.1049 15.6138 14.1624C15.5089 14.2198 15.3919 14.2499 15.2731 14.25H0.726854C0.608062 14.2499 0.491096 14.2198 0.38618 14.1624C0.281265 14.1049 0.191594 14.0218 0.125006 13.9204C0.0584177 13.819 0.0169397 13.7022 0.00419682 13.5804C-0.00854603 13.4587 0.00783443 13.3355 0.0519065 13.2217L1.45417 9.60524V6.75ZM5.18166 15.75C5.34183 16.3949 5.70593 16.9662 6.21638 17.3737C6.72682 17.7812 7.35446 18.0016 8 18C8.64554 18.0016 9.27318 17.7812 9.78362 17.3737C10.2941 16.9662 10.6582 16.3949 10.8183 15.75H5.18166Z" fill="#9F9B9B"/>
</svg>
