<svg width="14" height="11" viewBox="0 0 14 11" fill="none" xmlns="http://www.w3.org/2000/svg">
<path d="M11.372 5.621C12.942 5.621 14 6.713 14 8.331C14 9.787 12.784 11 11.137 11C9.333 11 8 9.544 8 7.32C8 2.265 11.686 0.243 14 0V2.224C12.431 2.507 10.667 4.084 10.588 5.824C10.667 5.784 10.98 5.621 11.372 5.621ZM3.373 5.621C4.941 5.621 6 6.713 6 8.331C6 9.787 4.784 11 3.137 11C1.333 11 0 9.544 0 7.32C0 2.265 3.686 0.243 6 0V2.224C4.431 2.507 2.667 4.084 2.588 5.824C2.667 5.784 2.98 5.621 3.373 5.621V5.621Z" fill="#9F9B9B"/>
</svg>
