<svg width="12" height="16" viewBox="0 0 12 16" fill="none" xmlns="http://www.w3.org/2000/svg">
    <path fill-rule="evenodd" clip-rule="evenodd" d="M8.07201 10.2618C7.45604 10.8617 6.62087 11.1992 5.74976 11.2C4.87865 11.1992 4.04348 10.8617 3.42751 10.2618C2.81154 9.66187 2.46509 8.84845 2.46419 8.00003V3.20001C2.46419 2.35132 2.81034 1.53738 3.42651 0.937261C4.04267 0.337143 4.87837 0 5.74976 0C6.62115 0 7.45684 0.337143 8.07301 0.937261C8.68917 1.53738 9.03533 2.35132 9.03533 3.20001V8.00003C9.03442 8.84845 8.68798 9.66187 8.07201 10.2618ZM11.4995 6.40016V8.00017V8.00084C11.4947 10.8075 9.37073 13.1302 6.57115 13.5362V14.4002H9.03532C9.14319 14.4002 9.25 14.4209 9.34966 14.4611C9.44931 14.5013 9.53986 14.5602 9.61614 14.6345C9.69241 14.7088 9.75291 14.797 9.79419 14.894C9.83547 14.9911 9.85672 15.0951 9.85672 15.2002C9.85672 15.3053 9.83547 15.4093 9.79419 15.5063C9.75291 15.6034 9.69241 15.6916 9.61614 15.7659C9.53986 15.8402 9.44931 15.8991 9.34966 15.9393C9.25 15.9795 9.14319 16.0002 9.03532 16.0002H2.46418C2.35631 16.0002 2.2495 15.9795 2.14985 15.9393C2.05019 15.8991 1.95964 15.8402 1.88337 15.7659C1.80709 15.6916 1.74659 15.6034 1.70531 15.5063C1.66403 15.4093 1.64279 15.3053 1.64279 15.2002C1.64279 15.0951 1.66403 14.9911 1.70531 14.894C1.74659 14.797 1.80709 14.7088 1.88337 14.6345C1.95964 14.5602 2.05019 14.5013 2.14985 14.4611C2.2495 14.4209 2.35631 14.4002 2.46418 14.4002H4.92836V13.5362L4.89687 13.5322C3.53638 13.3326 2.29434 12.6648 1.39596 11.6499C0.497583 10.635 0.00233099 9.34018 0 8.00017V6.40016C0 6.18799 0.0865394 5.98451 0.24058 5.83448C0.394622 5.68445 0.603546 5.60016 0.821393 5.60016C1.03924 5.60016 1.24816 5.68445 1.40221 5.83448C1.55625 5.98451 1.64279 6.18799 1.64279 6.40016V8.00017C1.64279 9.06104 2.07548 10.0785 2.84569 10.8286C3.61589 11.5788 4.66052 12.0002 5.74975 12.0002C6.83899 12.0002 7.88361 11.5788 8.65382 10.8286C9.42402 10.0785 9.85672 9.06104 9.85672 8.00017V6.40016C9.85672 6.18799 9.94326 5.98451 10.0973 5.83448C10.2513 5.68445 10.4603 5.60016 10.6781 5.60016C10.896 5.60016 11.1049 5.68445 11.2589 5.83448C11.413 5.98451 11.4995 6.18799 11.4995 6.40016Z" fill="#40CA2A"/>
</svg>
