<svg width="18" height="18" viewBox="0 0 18 18" fill="none" xmlns="http://www.w3.org/2000/svg">
<path d="M8.25 14.25V15C8.25 15.1989 8.17098 15.3897 8.03033 15.5303C7.88968 15.671 7.69891 15.75 7.5 15.75H6V16.5C6 16.8978 5.84196 17.2794 5.56066 17.5607C5.27936 17.842 4.89782 18 4.5 18H1.5C1.10218 18 0.720644 17.842 0.43934 17.5607C0.158035 17.2794 0 16.8978 0 16.5V14.5605C8.49561e-05 14.1627 0.158176 13.7812 0.4395 13.5L6.2445 7.695C5.88856 6.48636 5.92214 5.19633 6.34048 4.00784C6.75883 2.81935 7.5407 1.79272 8.57523 1.07351C9.60977 0.354311 10.8445 -0.0209633 12.1042 0.000904168C13.364 0.0227717 14.5849 0.440671 15.5939 1.19535C16.6028 1.95002 17.3486 3.00317 17.7255 4.20546C18.1023 5.40775 18.0911 6.69817 17.6934 7.89373C17.2957 9.0893 16.5318 10.1293 15.5099 10.8664C14.488 11.6034 13.26 12 12 12H10.4985V13.5C10.4985 13.6989 10.4195 13.8897 10.2788 14.0303C10.1382 14.171 9.94741 14.25 9.7485 14.25H8.2485H8.25ZM13.5 6C13.8978 6 14.2794 5.84196 14.5607 5.56066C14.842 5.27936 15 4.89783 15 4.5C15 4.10218 14.842 3.72064 14.5607 3.43934C14.2794 3.15804 13.8978 3 13.5 3C13.1022 3 12.7206 3.15804 12.4393 3.43934C12.158 3.72064 12 4.10218 12 4.5C12 4.89783 12.158 5.27936 12.4393 5.56066C12.7206 5.84196 13.1022 6 13.5 6Z" fill="#EDE9E9"/>
</svg>
