<svg width="20" height="15" viewBox="0 0 20 15" fill="currentcolor" xmlns="http://www.w3.org/2000/svg">
<path fill-rule="evenodd" clip-rule="evenodd" d="M0 4.98114C0 2.27345 2.43077 0.187526 5.28205 0.187526C6.7518 0.187526 8.04615 0.860438 8.97436 1.73292C9.90257 0.860438 11.1959 0.186523 12.6667 0.186523C15.518 0.186523 17.9487 2.27245 17.9487 4.98014C17.9487 5.14461 17.9415 5.30607 17.9282 5.46652C17.9213 5.53922 17.8866 5.6067 17.8311 5.65556C17.7756 5.70442 17.7034 5.73109 17.6287 5.73027H16.4103C16.0478 5.72986 15.6917 5.82365 15.3785 6.00205C15.2 6.10434 14.9538 6.0552 14.8677 5.87067L14.0441 4.11468C13.8994 3.80574 13.6768 3.53782 13.3971 3.33605C13.1175 3.13429 12.79 3.0053 12.4454 2.96119C12.1008 2.91708 11.7504 2.9593 11.4271 3.08388C11.1038 3.20846 10.8181 3.41132 10.5969 3.67343L8.98564 5.58386C8.94716 5.62964 8.89878 5.66651 8.84398 5.69182C8.78918 5.71714 8.72933 5.73027 8.66872 5.73027H7.94872C7.40468 5.73027 6.88293 5.94159 6.49824 6.31773C6.11355 6.69387 5.89744 7.20403 5.89744 7.73597C5.89744 8.26791 6.11355 8.77807 6.49824 9.15421C6.88293 9.53035 7.40468 9.74167 7.94872 9.74167H9.82769C10.1302 9.74161 10.429 9.67613 10.7026 9.54991C10.9762 9.42369 11.2179 9.23986 11.4103 9.01159L11.4851 8.92334C11.507 8.89766 11.535 8.87771 11.5667 8.86531C11.5984 8.85291 11.6328 8.84845 11.6667 8.85233C11.7007 8.85622 11.7331 8.86833 11.761 8.88756C11.7889 8.90679 11.8115 8.93253 11.8267 8.96245L13.2267 11.7223C13.2585 11.7852 13.2667 11.857 13.2499 11.9252C13.233 11.9934 13.1921 12.0537 13.1344 12.0954C12.68 12.4243 12.2246 12.7342 11.7836 13.026L9.40513 14.6005C9.27792 14.6845 9.1279 14.7295 8.97436 14.7295C8.82082 14.7295 8.6708 14.6845 8.54359 14.6005L6.16513 13.026C4.78769 12.1134 3.26256 11.0233 2.08 9.72462C0.894359 8.42192 0 6.84945 0 4.98114ZM12.6364 4.34608C12.7412 4.42168 12.8247 4.52208 12.879 4.63786L14.7179 8.561L15.8174 7.2583C15.8894 7.1726 15.9799 7.10352 16.0824 7.05602C16.1849 7.00851 16.2968 6.98376 16.4103 6.98352H19.2308C19.4348 6.98352 19.6304 7.06276 19.7747 7.20382C19.919 7.34487 20 7.53618 20 7.73566C20 7.93514 19.919 8.12644 19.7747 8.2675C19.6304 8.40855 19.4348 8.48779 19.2308 8.48779H16.7723L15.1231 10.4433C15.0401 10.5416 14.933 10.6175 14.8118 10.6642C14.6906 10.7109 14.5593 10.7267 14.4301 10.7101C14.301 10.6936 14.1782 10.6453 14.0734 10.5697C13.9685 10.4941 13.8851 10.3937 13.8308 10.2779L11.9918 6.35473L10.4226 8.21502C10.3504 8.30067 10.2597 8.36963 10.157 8.41697C10.0543 8.4643 9.94223 8.48883 9.82872 8.4888H7.94872C7.74471 8.4888 7.54905 8.40955 7.40479 8.2685C7.26053 8.12745 7.17949 7.93614 7.17949 7.73666C7.17949 7.53718 7.26053 7.34587 7.40479 7.20482C7.54905 7.06377 7.74471 6.98452 7.94872 6.98452H9.46667L11.5867 4.47239C11.6696 4.37418 11.7767 4.29819 11.8979 4.25152C12.0191 4.20486 12.1505 4.18905 12.2796 4.20559C12.4088 4.22213 12.5315 4.27047 12.6364 4.34608Z"/>
</svg>
