<svg width="18" height="18" viewBox="0 0 18 18" fill="none" xmlns="http://www.w3.org/2000/svg">
<path d="M7.19954 4.44734e-08C6.05363 0.000164089 4.92429 0.273789 3.90541 0.798133C2.88652 1.32248 2.00751 2.0824 1.34141 3.01474C0.67532 3.94708 0.24139 5.02492 0.0756836 6.15867C-0.0900224 7.29242 0.0172821 8.44934 0.388679 9.53329C0.760077 10.6172 1.38484 11.5969 2.21105 12.3909C3.03725 13.1848 4.04104 13.7701 5.13899 14.0982C6.23693 14.4262 7.39733 14.4875 8.52373 14.277C9.65014 14.0665 10.71 13.5901 11.6153 12.8876L16.4631 17.7367C16.6321 17.9055 16.8612 18.0002 17.1001 18C17.3389 17.9998 17.5679 17.9048 17.7367 17.7358C17.9055 17.5668 18.0002 17.3377 18 17.0989C17.9998 16.8601 17.9048 16.6311 17.7358 16.4623L12.888 11.6151C13.7143 10.5508 14.2255 9.27606 14.3632 7.93577C14.5009 6.59547 14.2598 5.24343 13.6672 4.03337C13.0745 2.82331 12.1542 1.80381 11.0109 1.09079C9.86754 0.377773 8.54704 -0.000149684 7.19954 4.44734e-08ZM1.79911 7.1998C1.79911 5.76767 2.36809 4.3942 3.38086 3.38153C4.39364 2.36886 5.76726 1.79995 7.19954 1.79995C8.63183 1.79995 10.0054 2.36886 11.0182 3.38153C12.031 4.3942 12.6 5.76767 12.6 7.1998C12.6 8.63193 12.031 10.0054 11.0182 11.0181C10.0054 12.0307 8.63183 12.5996 7.19954 12.5996C5.76726 12.5996 4.39364 12.0307 3.38086 11.0181C2.36809 10.0054 1.79911 8.63193 1.79911 7.1998Z" fill="#AAA6A6"/>
</svg>
