<svg width="18" height="18" viewBox="0 0 18 18" fill="none" xmlns="http://www.w3.org/2000/svg">
<path d="M6.88559 17.761C7.57959 17.9199 8.29001 18 9.00325 18C9.71493 17.9993 10.4241 17.9186 11.1162 17.7597C11.2982 17.7177 11.4622 17.6229 11.586 17.4882C11.7097 17.3536 11.7872 17.1856 11.8079 17.0072L11.9665 15.6252C11.9933 15.3781 12.1112 15.1482 12.299 14.977C12.4867 14.8059 12.7321 14.7046 12.9908 14.6914C13.163 14.6842 13.3343 14.7153 13.4919 14.7814L14.8091 15.3354C14.9236 15.3848 15.0476 15.4107 15.1732 15.4115C15.2987 15.4123 15.4231 15.3879 15.5383 15.3399C15.6542 15.2927 15.7579 15.2225 15.8433 15.1338C16.8118 14.1326 17.5348 12.9366 17.9595 11.6331C18.0151 11.4602 18.0134 11.2749 17.9546 11.103C17.8957 10.9311 17.7827 10.7809 17.6311 10.6732L16.4608 9.84514C16.3214 9.74805 16.208 9.6207 16.1297 9.47349C16.0515 9.32629 16.0107 9.16342 16.0107 8.9982C16.0107 8.83298 16.0515 8.67011 16.1297 8.52291C16.208 8.3757 16.3214 8.24835 16.4608 8.15126L17.6273 7.32502C17.7794 7.21713 17.8926 7.06656 17.9515 6.89417C18.0104 6.72178 18.0118 6.53611 17.9558 6.36287C17.5309 5.05918 16.807 3.86331 15.8372 2.86304C15.7087 2.73133 15.5407 2.64111 15.3565 2.60483C15.1723 2.56856 14.9808 2.58802 14.8086 2.66053L13.4919 3.21676C13.3559 3.27571 13.2076 3.30677 13.0574 3.30677C12.7872 3.30626 12.5266 3.21008 12.3257 3.03667C12.1248 2.86327 11.9977 2.62484 11.9688 2.36712L11.8093 0.99005C11.7888 0.80931 11.71 0.639216 11.5838 0.503571C11.4576 0.367926 11.2903 0.273519 11.1054 0.233562C10.4168 0.0861165 9.71397 0.00784058 9.00841 0C8.29802 0.00786326 7.59039 0.0862857 6.89685 0.234012C6.71214 0.273741 6.545 0.367844 6.4188 0.503159C6.2926 0.638475 6.21365 0.808236 6.193 0.988699L6.03346 2.36667C6.00336 2.62481 5.87505 2.86323 5.67309 3.0363C5.46709 3.20416 5.20714 3.29956 4.93686 3.30632C4.78775 3.30622 4.64029 3.27649 4.50376 3.21901L3.1899 2.66278C3.01712 2.58962 2.82487 2.56989 2.63986 2.60635C2.45486 2.6428 2.28629 2.73362 2.15758 2.86619C1.18911 3.86668 0.466066 5.06214 0.0413355 6.36512C-0.0147727 6.53829 -0.0132958 6.72391 0.0455614 6.89623C0.104419 7.06856 0.217738 7.21905 0.3698 7.32682L1.53725 8.15306C1.74581 8.30088 1.89319 8.51463 1.95338 8.75655C2.01357 8.99848 1.98268 9.25302 1.86619 9.47522C1.78872 9.62256 1.6762 9.75036 1.53772 9.84829L0.36933 10.6759C0.217401 10.7836 0.104161 10.9339 0.0453068 11.106C-0.0135472 11.2782 -0.015099 11.4636 0.0408663 11.6367C0.464845 12.9409 1.18795 14.1375 2.15711 15.1388C2.28515 15.2713 2.45309 15.3622 2.63755 15.3988C2.82201 15.4354 3.01378 15.4159 3.18615 15.3431L4.50845 14.7864C4.645 14.7288 4.79233 14.6991 4.94155 14.6991H4.94531C5.21457 14.6994 5.4743 14.7947 5.67505 14.9668C5.87579 15.1389 6.00353 15.3758 6.03393 15.6324L6.19253 17.0082C6.21319 17.1868 6.29084 17.355 6.41488 17.4897C6.53892 17.6245 6.70331 17.7192 6.88559 17.761ZM8.99996 11.8126C8.22216 11.8126 7.47621 11.5163 6.92622 10.9888C6.37623 10.4614 6.06724 9.74596 6.06724 9C6.06724 8.25404 6.37623 7.53863 6.92622 7.01116C7.47621 6.48369 8.22216 6.18736 8.99996 6.18736C9.77777 6.18736 10.5237 6.48369 11.0737 7.01116C11.6237 7.53863 11.9327 8.25404 11.9327 9C11.9327 9.74596 11.6237 10.4614 11.0737 10.9888C10.5237 11.5163 9.77777 11.8126 8.99996 11.8126Z" fill="#9F9B9B"/>
</svg>
