<svg width="19" height="14" viewBox="0 0 19 14" fill="none" xmlns="http://www.w3.org/2000/svg">
    <path d="M6.43433 1.4C6.43433 2.17467 7.06907 2.8 7.85539 2.8H11.1712V12.6C11.1712 13.3747 11.8059 14 12.5922 14C13.3785 14 14.0133 13.3747 14.0133 12.6V2.8H17.3291C18.1154 2.8 18.7501 2.17467 18.7501 1.4C18.7501 0.625333 18.1154 0 17.3291 0H7.85539C7.06907 0 6.43433 0.625333 6.43433 1.4ZM2.17117 7.46667H3.59223V12.6C3.59223 13.3747 4.22696 14 5.01328 14C5.7996 14 6.43433 13.3747 6.43433 12.6V7.46667H7.85539C8.6417 7.46667 9.27644 6.84133 9.27644 6.06667C9.27644 5.292 8.6417 4.66667 7.85539 4.66667H2.17117C1.38486 4.66667 0.750122 5.292 0.750122 6.06667C0.750122 6.84133 1.38486 7.46667 2.17117 7.46667Z" fill="#9F9B9B"/>
</svg>
