<svg width="60" height="24" viewBox="0 0 60 24" fill="none" xmlns="http://www.w3.org/2000/svg">
    <rect width="60" height="24" rx="12" fill="#AAA6A6"/>
    <path d="M29.3413 17.6832C29.4147 17.7809 29.5129 17.8608 29.6274 17.916C29.742 17.9712 29.8695 18 29.9989 18C30.1283 18 30.2558 17.9712 30.3704 17.916C30.485 17.8608 30.5832 17.7809 30.6566 17.6832L37.8571 8.15052C37.9405 8.04057 37.9894 7.91179 37.9984 7.77816C38.0075 7.64454 37.9765 7.51119 37.9087 7.3926C37.8409 7.274 37.739 7.1747 37.6139 7.10549C37.4889 7.03627 37.3456 6.99979 37.1995 7H22.7984C22.6526 7.00055 22.5098 7.03751 22.3853 7.10689C22.2607 7.17627 22.1592 7.27545 22.0916 7.39377C22.0239 7.51209 21.9928 7.64507 22.0014 7.7784C22.0101 7.91174 22.0582 8.04039 22.1407 8.15052L29.3413 17.6832Z" fill="white"/>
</svg>
