<svg width="60" height="24" viewBox="0 0 60 24" fill="none" xmlns="http://www.w3.org/2000/svg">
    <rect width="60" height="24" rx="12" fill="#F97F77"/>
    <path fill-rule="evenodd" clip-rule="evenodd" d="M35.3333 12C35.3333 14.9455 32.9455 17.3333 30 17.3333C29.1767 17.3333 28.3969 17.1468 27.7007 16.8136L34.8136 9.7007C35.1468 10.3969 35.3333 11.1767 35.3333 12ZM25.1865 14.2995L32.2995 7.18649C31.6032 6.85327 30.8234 6.66667 30 6.66667C27.0545 6.66667 24.6667 9.05448 24.6667 12C24.6667 12.8234 24.8533 13.6032 25.1865 14.2995ZM38 12C38 16.4183 34.4183 20 30 20C25.5817 20 22 16.4183 22 12C22 7.58172 25.5817 4 30 4C34.4183 4 38 7.58172 38 12Z" fill="white"/>
</svg>
