<svg width="12" height="14" viewBox="0 0 12 14" fill="none" xmlns="http://www.w3.org/2000/svg">
    <path d="M6.87078 10.85C9.25149 10.5467 10.9643 8.43111 10.9643 6.05889V0.972222C10.9643 0.714373 10.8609 0.467084 10.6767 0.284757C10.4925 0.10243 10.2427 0 9.9822 0C9.72172 0 9.47191 0.10243 9.28772 0.284757C9.10354 0.467084 9.00006 0.714373 9.00006 0.972222V6.14444C9.00006 7.44333 8.1122 8.62556 6.82363 8.88222C6.42293 8.96769 6.00798 8.96326 5.60923 8.86924C5.21049 8.77522 4.83807 8.59401 4.51932 8.3389C4.20057 8.08379 3.94358 7.76126 3.7672 7.39498C3.59082 7.02871 3.49955 6.62798 3.50006 6.22222V0.972222C3.50006 0.714373 3.39659 0.467084 3.2124 0.284757C3.02821 0.10243 2.7784 0 2.51792 0C2.25744 0 2.00763 0.10243 1.82344 0.284757C1.63925 0.467084 1.53578 0.714373 1.53578 0.972222V6.22222C1.53578 8.99889 3.99506 11.2156 6.87078 10.85ZM0.750061 13.2222C0.750061 13.65 1.10363 14 1.53578 14H10.9643C11.3965 14 11.7501 13.65 11.7501 13.2222C11.7501 12.7944 11.3965 12.4444 10.9643 12.4444H1.53578C1.10363 12.4444 0.750061 12.7944 0.750061 13.2222Z" fill="#9F9B9B"/>
</svg>
