<svg width="20" height="21" viewBox="0 0 20 21" fill="none" xmlns="http://www.w3.org/2000/svg">
    <path d="M0 13C0 15.2605 1.629 17.5705 4.5 18.535V11.5C4.5 10.954 4.6455 10.441 4.902 10H2.25C1.65326 10 1.08097 10.2371 0.65901 10.659C0.237053 11.081 0 11.6533 0 12.25V13ZM7.5 0.25C8.59402 0.25 9.64323 0.684597 10.4168 1.45818C11.1904 2.23177 11.625 3.28098 11.625 4.375C11.625 5.46902 11.1904 6.51823 10.4168 7.29182C9.64323 8.0654 8.59402 8.5 7.5 8.5C6.40598 8.5 5.35677 8.0654 4.58318 7.29182C3.8096 6.51823 3.375 5.46902 3.375 4.375C3.375 3.28098 3.8096 2.23177 4.58318 1.45818C5.35677 0.684597 6.40598 0.25 7.5 0.25ZM12.765 15.8905L6.0195 11.956C6.09082 11.4149 6.35638 10.9182 6.76672 10.5583C7.17707 10.1985 7.70422 10.0001 8.25 10H17.25C17.8467 10 18.419 10.2371 18.841 10.659C19.2629 11.081 19.5 11.6533 19.5 12.25V12.265L12.765 15.8905ZM13.1055 17.41L19.5 13.9675V18.25C19.5 18.8467 19.2629 19.419 18.841 19.841C18.419 20.2629 17.8467 20.5 17.25 20.5H8.25C7.65326 20.5 7.08097 20.2629 6.65901 19.841C6.23705 19.419 6 18.8467 6 18.25V13.681L12.372 17.398C12.4832 17.4629 12.6092 17.4981 12.7379 17.5002C12.8667 17.5023 12.9938 17.4713 13.107 17.41H13.1055Z" fill="#E8E3E3"/>
</svg>
