<svg width="13" height="12" viewBox="0 0 13 12" fill="none" xmlns="http://www.w3.org/2000/svg">
<path d="M0.302013 9.89L4.18201 6L0.292015 2.11C0.199433 2.01742 0.125993 1.90751 0.0758877 1.78654C0.0257826 1.66558 -5.72205e-06 1.53593 -5.72205e-06 1.405C-5.72205e-06 1.27407 0.0257826 1.14442 0.0758877 1.02346C0.125993 0.902492 0.199433 0.792582 0.292015 0.7C0.384597 0.607418 0.494507 0.533978 0.615471 0.483873C0.736435 0.433768 0.866084 0.407979 0.997015 0.407979C1.12795 0.407979 1.25759 0.433768 1.37856 0.483873C1.49952 0.533978 1.60943 0.607418 1.70201 0.7L6.29201 5.29C6.38472 5.38251 6.45827 5.4924 6.50845 5.61338C6.55863 5.73435 6.58446 5.86403 6.58446 5.995C6.58446 6.12597 6.55863 6.25565 6.50845 6.37662C6.45827 6.4976 6.38472 6.60749 6.29201 6.7L1.70201 11.29C1.31201 11.68 0.682015 11.68 0.292015 11.29C0.10843 11.1026 0.00643635 10.8502 0.00831032 10.5879C0.0101843 10.3256 0.11577 10.0747 0.302013 9.89ZM11.002 0C10.452 0 10.002 0.45 10.002 1V11C10.002 11.55 10.452 12 11.002 12C11.552 12 12.002 11.55 12.002 11V1C12.002 0.45 11.552 0 11.002 0Z" />
</svg>
