<svg width="13" height="12" viewBox="0 0 13 12" fill="currentColor" xmlns="http://www.w3.org/2000/svg">
<path d="M11.7 9.89L7.82 6L11.71 2.11C11.8026 2.01742 11.876 1.90751 11.9261 1.78654C11.9762 1.66558 12.002 1.53593 12.002 1.405C12.002 1.27407 11.9762 1.14442 11.9261 1.02346C11.876 0.902492 11.8026 0.792582 11.71 0.7C11.6174 0.607418 11.5075 0.533978 11.3865 0.483873C11.2656 0.433768 11.1359 0.407979 11.005 0.407979C10.8741 0.407979 10.7444 0.433768 10.6235 0.483873C10.5025 0.533978 10.3926 0.607418 10.3 0.7L5.71 5.29C5.6173 5.38251 5.54375 5.4924 5.49357 5.61338C5.44339 5.73435 5.41756 5.86403 5.41756 5.995C5.41756 6.12597 5.44339 6.25565 5.49357 6.37662C5.54375 6.4976 5.6173 6.60749 5.71 6.7L10.3 11.29C10.69 11.68 11.32 11.68 11.71 11.29C11.8936 11.1026 11.9956 10.8502 11.9937 10.5879C11.9918 10.3256 11.8862 10.0747 11.7 9.89ZM1 0C1.55 0 2 0.45 2 1V11C2 11.55 1.55 12 1 12C0.45 12 0 11.55 0 11V1C0 0.45 0.45 0 1 0Z" />
</svg>
