<svg width="128" height="38" viewBox="0 0 128 38" fill="none" xmlns="http://www.w3.org/2000/svg">
    <path fill-rule="evenodd" clip-rule="evenodd" d="M4.79731 0.612488V6.47636H12.4451C13.5597 6.47636 14.5255 6.76092 15.3157 7.28821C16.0936 7.80735 16.5878 8.48554 16.8969 9.10427C17.2021 9.71534 17.345 10.3028 17.4146 10.7209C17.4502 10.9346 17.4687 11.117 17.4785 11.2536C17.4834 11.3222 17.4861 11.3802 17.4876 11.4259C17.4884 11.4488 17.4888 11.4687 17.4891 11.4854L17.4894 11.5081L17.4894 11.5176L17.4895 11.5218L17.4895 11.5239C17.4895 11.5248 17.4895 11.5258 15.5368 11.5258L17.4895 11.5259V18.367C17.4895 19.4827 17.2052 20.4495 16.6784 21.2404C16.1598 22.0191 15.4823 22.5139 14.8642 22.8232C14.2538 23.1288 13.667 23.2718 13.2492 23.3415C13.0357 23.3771 12.8536 23.3957 12.7171 23.4054C12.6486 23.4103 12.5906 23.4131 12.5449 23.4146C12.5221 23.4154 12.5022 23.4158 12.4855 23.4161L12.4768 23.4162L12.4629 23.4164L12.4534 23.4164L12.4491 23.4164L12.4471 23.4165C12.4461 23.4165 12.4451 23.4165 12.4451 21.4618L12.4451 23.4165H6.09907C4.94379 23.4165 3.94751 23.1217 3.13449 22.5792C2.33369 22.0448 1.8242 21.3462 1.50497 20.7071C1.18958 20.0757 1.04161 19.4679 0.969447 19.0345C0.932593 18.8131 0.913411 18.6244 0.903347 18.4834C0.898291 18.4125 0.895469 18.3527 0.893907 18.3058C0.893125 18.2823 0.892656 18.262 0.892382 18.245L0.892103 18.222L0.892046 18.2124L0.892033 18.2081L0.892029 18.2061C0.892029 18.2051 0.892029 18.2041 2.84467 18.2041H0.892029V0.612488H4.79731ZM4.79731 18.1822L4.7987 18.2048C4.80135 18.242 4.80759 18.3077 4.82159 18.3918C4.85113 18.5692 4.90656 18.7758 4.99796 18.9588C5.08554 19.1342 5.18624 19.2501 5.30075 19.3265C5.40303 19.3947 5.62715 19.5072 6.09907 19.5072H12.4218L12.4389 19.5061C12.4715 19.5038 12.5309 19.4982 12.6072 19.4854C12.7692 19.4584 12.9553 19.408 13.1177 19.3267C13.2726 19.2492 13.368 19.1637 13.4291 19.072C13.482 18.9925 13.5842 18.7987 13.5842 18.367V11.5492L13.5831 11.5321C13.5808 11.4994 13.5752 11.44 13.5624 11.3636C13.5355 11.2015 13.4851 11.0152 13.4039 10.8525C13.3265 10.6976 13.241 10.602 13.1494 10.5409C13.07 10.4879 12.8764 10.3856 12.4451 10.3856H4.79731V18.1822ZM20.093 6.47636H31.6461C32.7607 6.47636 33.7265 6.76091 34.5166 7.28821C35.2945 7.80735 35.7888 8.48554 36.0978 9.10427C36.403 9.71534 36.5459 10.3028 36.6155 10.7209C36.6511 10.9346 36.6697 11.117 36.6794 11.2536C36.6843 11.3222 36.6871 11.3802 36.6886 11.4259C36.6893 11.4488 36.6898 11.4687 36.6901 11.4854L36.6903 11.5081L36.6904 11.5176L36.6904 11.5218L36.6904 11.5239C36.6904 11.5248 36.6904 11.5258 34.7378 11.5258L36.6904 11.5258V18.367C36.6904 19.4827 36.4062 20.4495 35.8794 21.2404C35.3608 22.0191 34.6833 22.5139 34.0652 22.8232C33.4547 23.1288 32.8679 23.2718 32.4502 23.3415C32.2367 23.3771 32.0545 23.3957 31.9181 23.4054C31.8495 23.4103 31.7915 23.4131 31.7459 23.4146C31.723 23.4154 31.7031 23.4158 31.6865 23.4161L31.6638 23.4164L31.6543 23.4164L31.6501 23.4165L31.648 23.4165C31.6471 23.4165 31.6461 23.4165 31.6461 21.4618L31.6461 23.4165H25.3C24.1447 23.4165 23.1485 23.1217 22.3354 22.5792C21.5346 22.0448 21.0252 21.3462 20.7059 20.7071C20.3905 20.0757 20.2426 19.4679 20.1704 19.0345C20.1335 18.8131 20.1144 18.6244 20.1043 18.4834C20.0992 18.4125 20.0964 18.3527 20.0949 18.3058C20.0941 18.2823 20.0936 18.262 20.0933 18.245L20.0931 18.222L20.093 18.2124L20.093 18.2081L20.093 18.2061C20.093 18.2051 20.093 18.2041 22.0456 18.2041H20.093V12.9103H32.7851V11.5492L32.7841 11.5321C32.7817 11.4994 32.7761 11.44 32.7634 11.3636C32.7364 11.2015 32.6861 11.0152 32.6048 10.8525C32.5274 10.6976 32.442 10.602 32.3503 10.5409C32.2709 10.4879 32.0773 10.3856 31.6461 10.3856H20.093V6.47636ZM32.7851 16.8196H23.9983V18.1822L23.9997 18.2048C24.0023 18.242 24.0085 18.3077 24.0225 18.3918C24.0521 18.5692 24.1075 18.7759 24.1989 18.9588C24.2865 19.1342 24.3872 19.2501 24.5017 19.3265C24.604 19.3947 24.8281 19.5072 25.3 19.5072H31.6228L31.6398 19.5061C31.6724 19.5038 31.7318 19.4982 31.8082 19.4854C31.9701 19.4584 32.1562 19.408 32.3187 19.3267C32.4735 19.2492 32.5689 19.1637 32.63 19.072C32.6829 18.9925 32.7851 18.7987 32.7851 18.367V16.8196ZM50.8471 6.47636H39.2939V23.4165H43.1992V10.3856H50.8471C51.2783 10.3856 51.4719 10.4879 51.5513 10.5409C51.6429 10.602 51.7284 10.6976 51.8058 10.8525C51.887 11.0152 51.9374 11.2015 51.9644 11.3636C51.9771 11.44 51.9827 11.4994 51.985 11.5321L51.9861 11.5492V23.4165H55.8914V11.5258H53.9387C55.8914 11.5258 55.8914 11.5248 55.8914 11.5239L55.8914 11.5218L55.8914 11.5176L55.8913 11.5081L55.891 11.4854C55.8908 11.4687 55.8903 11.4488 55.8895 11.4259C55.888 11.3802 55.8853 11.3222 55.8804 11.2536C55.8706 11.117 55.8521 10.9346 55.8165 10.7209C55.7469 10.3028 55.604 9.71534 55.2988 9.10427C54.9897 8.48554 54.4955 7.80735 53.7176 7.28821C52.9274 6.76091 51.9617 6.47636 50.8471 6.47636ZM63.7019 6.47636H70.048C71.1626 6.47636 72.1284 6.76091 72.9185 7.28821C73.6964 7.80735 74.1907 8.48554 74.4997 9.10427C74.805 9.71534 74.9478 10.3028 75.0175 10.7209C75.053 10.9346 75.0716 11.117 75.0813 11.2536C75.0862 11.3222 75.089 11.3802 75.0905 11.4259C75.0913 11.4488 75.0917 11.4687 75.092 11.4854L75.0923 11.5081L75.0923 11.5176L75.0923 11.5218L75.0923 11.5239C75.0923 11.5248 75.0923 11.5258 73.1397 11.5258H75.0923V24.7195C75.0923 25.8353 74.8081 26.802 74.2813 27.593C73.7627 28.3717 73.0852 28.8664 72.4671 29.1758C71.8567 29.4813 71.2698 29.6243 70.8521 29.694C70.6386 29.7297 70.4564 29.7482 70.32 29.758C70.2514 29.7629 70.1935 29.7656 70.1478 29.7671C70.1249 29.7679 70.105 29.7684 70.0884 29.7686L70.077 29.7688L70.0658 29.7689L70.0563 29.769L70.05 29.769C70.049 29.769 70.048 29.769 70.048 27.8144V29.769H58.4949V25.8597H70.0247L70.0417 25.8587C70.0744 25.8563 70.1337 25.8507 70.2101 25.838C70.372 25.811 70.5581 25.7606 70.7206 25.6792C70.8754 25.6018 70.9708 25.5162 71.0319 25.4245C71.0849 25.345 71.1871 25.1512 71.1871 24.7195V23.4165H63.7019C62.5466 23.4165 61.5504 23.1217 60.7374 22.5792C59.9366 22.0448 59.4271 21.3462 59.1078 20.7071C58.7924 20.0757 58.6445 19.4679 58.5723 19.0345C58.5355 18.8131 58.5163 18.6244 58.5062 18.4834C58.5012 18.4125 58.4983 18.3527 58.4968 18.3058L58.4955 18.2614L58.4952 18.245L58.495 18.222L58.4949 18.2124L58.4949 18.2081L58.4949 18.2061C58.4949 18.2051 58.4949 18.2041 60.4475 18.2041L58.4949 18.2041V11.5258C58.4949 10.3888 58.8008 9.40816 59.3577 8.61383C59.9024 7.8368 60.6067 7.35196 61.2369 7.05227C61.8619 6.75511 62.4618 6.61633 62.8881 6.54877C63.106 6.51423 63.2916 6.49629 63.4299 6.48689C63.4994 6.48217 63.5579 6.47955 63.6036 6.4781C63.6265 6.47737 63.6462 6.47694 63.6627 6.47669L63.6849 6.47643L63.694 6.47638L63.6981 6.47637L63.7001 6.47637C63.701 6.47636 63.7019 6.47636 63.7019 8.43099V6.47636ZM63.7215 10.3856C63.716 10.3859 63.7068 10.3863 63.6943 10.3872C63.6546 10.3899 63.586 10.3961 63.4988 10.4099C63.3148 10.4391 63.1012 10.4937 62.9125 10.5834C62.7292 10.6706 62.6198 10.766 62.5544 10.8594C62.501 10.9355 62.4002 11.1154 62.4002 11.5258V18.1822L62.4016 18.2048C62.4042 18.242 62.4105 18.3077 62.4245 18.3918C62.454 18.5692 62.5094 18.7759 62.6008 18.9588C62.6884 19.1342 62.7891 19.2501 62.9036 19.3265C63.0059 19.3947 63.23 19.5072 63.7019 19.5072H71.1871V11.5492L71.186 11.5321C71.1836 11.4994 71.178 11.44 71.1653 11.3636C71.1383 11.2015 71.088 11.0152 71.0067 10.8525C70.9293 10.6976 70.8439 10.602 70.7523 10.5409C70.6729 10.4879 70.4793 10.3856 70.048 10.3856H63.7215ZM89.2427 19.5061L89.2257 19.5072H82.7402C82.3089 19.5072 82.1153 19.4049 82.0359 19.3519C81.9443 19.2908 81.8589 19.1953 81.7814 19.0403C81.7002 18.8777 81.6499 18.6914 81.6229 18.5292C81.6101 18.4528 81.6045 18.3934 81.6022 18.3607L81.6011 18.3437V6.47636H77.6958V18.367H79.6485C77.6958 18.367 77.6958 18.368 77.6958 18.369L77.6959 18.371L77.6959 18.3753L77.6959 18.3848L77.6962 18.4074L77.697 18.4441L77.6977 18.4669C77.6992 18.5126 77.702 18.5706 77.7068 18.6392C77.7166 18.7758 77.7351 18.9582 77.7707 19.1719C77.8403 19.5901 77.9832 20.1775 78.2885 20.7886C78.5975 21.4073 79.0917 22.0855 79.8697 22.6046C80.6598 23.1319 81.6256 23.4165 82.7402 23.4165H89.249V21.4618C89.249 23.4165 89.2499 23.4165 89.2509 23.4165L89.2529 23.4165L89.2572 23.4164L89.2667 23.4164L89.2893 23.4161C89.306 23.4158 89.3259 23.4154 89.3487 23.4146C89.3944 23.4131 89.4524 23.4103 89.5209 23.4054C89.6574 23.3957 89.8396 23.3771 90.0531 23.3415C90.4708 23.2718 91.0576 23.1288 91.6681 22.8232C92.2862 22.5139 92.9637 22.0191 93.4823 21.2404C94.009 20.4495 94.2933 19.4827 94.2933 18.367V6.47637L90.388 6.47637V18.367C90.388 18.7987 90.2858 18.9925 90.2329 19.072C90.1718 19.1637 90.0764 19.2492 89.9216 19.3267C89.7591 19.408 89.573 19.4584 89.411 19.4854C89.3347 19.4982 89.2753 19.5038 89.2427 19.5061ZM110.644 6.47636H115.447C116.561 6.47636 117.527 6.76091 118.317 7.28821C119.095 7.80735 119.59 8.48554 119.899 9.10427C120.204 9.71534 120.347 10.3028 120.416 10.7209C120.452 10.9346 120.47 11.117 120.48 11.2536C120.485 11.3222 120.488 11.3802 120.489 11.4259C120.49 11.4488 120.491 11.4687 120.491 11.4854L120.491 11.4968L120.491 11.5081L120.491 11.5176L120.491 11.5239C120.491 11.5248 120.491 11.5258 118.539 11.5258H120.491V23.4165H116.586V11.5491L116.585 11.5321C116.583 11.4994 116.577 11.44 116.564 11.3636C116.537 11.2015 116.487 11.0152 116.406 10.8525C116.328 10.6976 116.243 10.602 116.151 10.5409C116.072 10.4879 115.878 10.3856 115.447 10.3856H110.647V23.4165H106.741V10.3856H100.802V23.4165H96.8968V6.47636H106.581L102.35 2.24134L103.731 0.859212L108.613 5.74578L113.494 0.859212L114.875 2.24134L110.644 6.47636ZM123.095 23.4165L123.095 6.47637L127 6.47636L127 23.4164L123.095 23.4165ZM97.2509 30.8062V32.6231H99.6878V30.8062H97.2509ZM99.6878 29.4341H97.2509V27.6681H99.6878V29.4341ZM99.6878 33.9952H97.2509V35.8883H99.6878V33.9952ZM101.224 35.8883V26.2959H95.7786V35.8883H94.6109V37.2604H102.074V35.8883H101.224ZM91.0818 27.8981C91.4415 27.1921 91.8029 26.34 92.0217 25.6734L93.3671 26.1435C92.9016 27.03 92.3752 28.0283 91.915 28.7292C92.0834 28.9145 92.2368 29.0971 92.3644 29.2675C92.8176 28.5419 93.233 27.8026 93.5448 27.1726L94.8267 27.7062C94.1033 28.8316 93.1991 30.1379 92.3752 31.1722C92.7929 31.1536 93.2263 31.1334 93.6646 31.112C93.5262 30.8067 93.3775 30.5071 93.2275 30.2345L94.3063 29.7644C94.814 30.6157 95.3217 31.721 95.4867 32.4579L94.3317 32.9915C94.2898 32.7922 94.2238 32.5601 94.1402 32.3101C93.9031 32.3284 93.6661 32.3464 93.4305 32.3639V37.6034H92.0725V32.4614C91.3896 32.5088 90.7458 32.5507 90.1814 32.5849L90.0544 31.2636C90.3387 31.2544 90.6561 31.243 90.9979 31.2298C91.1938 30.9837 91.3944 30.7141 91.5946 30.4301C91.2151 29.8652 90.5984 29.185 90.0671 28.6845L90.7779 27.63C90.8776 27.715 90.9795 27.8049 91.0818 27.8981ZM94.2048 35.8883C94.0905 35.2276 93.7605 34.1985 93.4559 33.4235L94.5728 33.055C94.9028 33.8173 95.2455 34.8083 95.3978 35.4563L94.2048 35.8883ZM89.9275 36.0915C90.2956 35.3419 90.4987 34.2112 90.6002 33.1313L91.8567 33.3472C91.7298 34.5669 91.4506 35.8374 91.0825 36.6506C90.816 36.4854 90.2448 36.2186 89.9275 36.0915ZM77.705 30.3616V29.1165H80.154C79.9703 28.7183 79.6866 28.2238 79.4184 27.846L80.0153 27.6255C79.5933 27.6388 79.1774 27.6487 78.7711 27.6554C78.733 27.325 78.5807 26.8041 78.4538 26.4992C81.5253 26.423 85.0791 26.1689 87.1733 25.7369L88.1379 26.8423C87.4813 26.975 86.753 27.0896 85.9807 27.1875L87.5541 27.5664C87.2106 28.129 86.8501 28.683 86.5495 29.1165H89.0771V30.3616H85.5136C86.5975 31.1176 88.0792 31.7445 89.496 32.0894C89.1533 32.3944 88.7218 32.9915 88.4933 33.3727C88.2019 33.2812 87.9089 33.1746 87.6175 33.0545V37.5653H86.0818V37.2096H80.7765V37.6161H79.3169V32.9934C78.9831 33.1459 78.6472 33.2816 78.3142 33.3981C78.1111 33.055 77.6923 32.5087 77.375 32.2292C78.71 31.8378 80.1238 31.1524 81.1643 30.3616H77.705ZM84.0891 30.7829C84.7977 31.467 85.6676 32.082 86.5927 32.5722H80.1559C81.0422 32.0866 81.8827 31.493 82.5788 30.8417V32.3562H84.0891V30.7829ZM84.0891 29.1165H85.4754L85.0537 28.9894C85.3379 28.4823 85.6702 27.7464 85.8516 27.2037C85.2832 27.2739 84.6921 27.3353 84.0891 27.3884V29.1165ZM82.5788 27.5032C82.018 27.5394 81.4549 27.5692 80.8976 27.5928C81.2039 28.017 81.5134 28.5243 81.6522 28.8878L81.0648 29.1165H82.5788V27.5032ZM80.7765 36.0661H82.6295V35.3673H80.7765V36.0661ZM84.0764 34.3764H86.0818V33.7157H84.0764V34.3764ZM82.6295 33.7157H80.7765V34.3764H82.6295V33.7157ZM84.0764 35.3673V36.0661H86.0818V35.3673H84.0764ZM107.963 29.9296V31.4415H110.641V37.5907H112.19V31.4415H114.842V29.9296H112.19V25.7115H110.641V29.9296H107.963ZM103.419 29.5611V30.7046H107.519V29.5611H103.419ZM103.495 26.0545V27.2107H107.544V26.0545H103.495ZM103.419 31.289V32.4452H107.519V31.289H103.419ZM108.027 27.7697H102.797V28.9767H108.027V27.7697ZM104.701 34.262H106.148V35.7104H104.701V34.262ZM107.481 36.9174H104.701V37.4256H103.381V33.055H104.117H104.701H107.481V36.9174ZM117.622 35.4055V28.6845H116.15V37.5907H117.622V36.8411H125.313V37.578H126.798V28.6845H125.313V35.4055H117.622ZM115.756 27.846V26.423H127.192V27.846H122.191V28.8624H124.488V34.6686H118.421V28.8624H120.643V27.846H115.756ZM120.769 30.1075H119.678V31.1747H120.769V30.1075ZM122.077 31.1747V30.1075H123.181V31.1747H122.077ZM120.769 32.3435H119.678V33.4235H120.769V32.3435ZM122.077 33.4235V32.3435H123.181V33.4235H122.077Z" fill="#F09199"/>
</svg>
