<svg width="145" height="145" viewBox="0 0 145 145" fill="none" xmlns="http://www.w3.org/2000/svg">
    <mask id="mask0_1164_4155" style="mask-type:alpha" maskUnits="userSpaceOnUse" x="0" y="0" width="145" height="145">
        <rect width="145" height="145" rx="8" fill="#C4C4C4"/>
    </mask>
    <g mask="url(#mask0_1164_4155)">
        <path fill-rule="evenodd" clip-rule="evenodd" d="M84.803 29.6984C84.803 29.6984 72.5 25.2487 60.197 29.6984C60.197 29.6984 61.0758 31.4783 61.9545 37.263C60.197 31.4783 48.7727 11.8995 34.7121 3C34.7121 33.4172 49.879 40.2333 52.38 41.1505L44.8182 38.5979C34.7121 41.2677 14.5 119.138 14.5 132.487C14.5 135.157 17.1364 143.167 22.4091 143.167C25.4848 143.167 54.9242 143.012 54.9242 143.012C54.9242 143.012 54.9242 119.583 67.2272 119.583V114.688C67.2272 114.688 50.0909 114.688 45.2575 102.229L45.7234 130.707C43.9394 119.583 43.9394 99.1143 43.9394 99.1143C43.9394 98.8323 43.9369 98.4796 43.934 98.0631L43.934 98.0623C43.8821 90.5906 43.6875 62.6012 54.9242 54.172C49.4318 60.6241 48.3333 74.1958 48.3333 74.1958C49.4318 76.8656 53.3863 77.5331 53.3863 77.5331C53.3863 77.5331 54.2651 73.9733 56.6818 71.081C56.6818 71.081 56.0227 80.8704 70.7424 80.8704C70.7424 80.8704 69.4242 77.7556 70.303 74.6407C70.303 74.6407 72.9394 79.5355 80.4091 79.0905C80.4091 79.0905 81.9469 76.4206 81.7272 74.1958C81.7272 74.1958 84.5833 77.5331 89.6363 77.7556C89.6363 77.7556 90.0757 75.3082 90.0757 73.3058C90.0757 73.3058 92.9318 77.5331 97.5454 77.5331C96.8863 68.6336 94.0303 61.7365 90.0757 54.172C101.141 65.3778 101.096 84.0178 101.064 97.1081C101.062 97.7926 101.061 98.462 101.061 99.1143C101.061 99.1143 101.061 119.583 99.303 130.707L99.7424 102.229C94.909 114.688 77.7727 114.688 77.7727 114.688V119.583C90.0757 119.583 90.0757 143.167 90.0757 143.167H122.591C127.424 143.167 130.5 135.157 130.5 132.487C130.5 119.138 110.288 41.2677 100.182 38.5979L92.7731 41.0988C95.6821 40.0104 110.288 33.0496 110.288 3C96.2273 11.8995 84.803 31.4783 82.6061 37.263C83.9242 31.4783 84.803 29.6984 84.803 29.6984ZM92.2727 41.2677C92.2727 41.2677 92.4514 41.2192 92.7731 41.0988L92.2727 41.2677ZM52.7273 41.2677L52.38 41.1505C52.6048 41.2329 52.7273 41.2677 52.7273 41.2677ZM53.606 80.4254C62.8333 80.6479 65.6894 87.99 65.9091 89.3249L64.5909 88.4349C64.5909 88.4349 64.1515 101.562 55.803 101.784C47.3924 102.008 47.4341 92.4223 47.4529 88.0907C47.4537 87.8979 47.4545 87.7156 47.4545 87.545C46.5757 89.7698 45.6969 95.1095 45.6969 95.1095C45.6969 90.4373 46.7954 80.2612 53.606 80.4254ZM79.0909 89.3249C79.3106 87.99 82.1666 80.6479 91.3939 80.4254C98.2045 80.2612 99.303 90.4373 99.303 95.1095C99.303 95.1095 98.4242 89.7698 97.5454 87.545C97.5454 87.7156 97.5462 87.8979 97.5471 88.0907C97.5659 92.4223 97.6075 102.008 89.1969 101.784C80.8484 101.562 80.4091 88.4349 80.4091 88.4349L79.0909 89.3249ZM55.4126 96.8895C55.3617 96.8894 55.3111 96.8804 55.2632 96.8628C55.1708 96.8285 55.0925 96.7638 55.0407 96.6791C54.9889 96.5944 54.9667 96.4946 54.9776 96.3955L55.316 93.2407H52.7279C52.6481 93.2408 52.5698 93.2189 52.5013 93.1773C52.4328 93.1357 52.3769 93.0761 52.3394 93.0047C52.3019 92.9333 52.2843 92.853 52.2885 92.7723C52.2927 92.6915 52.3185 92.6135 52.3632 92.5465L55.8301 87.2958C55.8849 87.2137 55.9652 87.1524 56.0584 87.1218C56.1515 87.0911 56.2521 87.0929 56.3441 87.1267C56.4326 87.16 56.5082 87.2213 56.5596 87.3014C56.6111 87.3815 56.6357 87.4763 56.6297 87.5717L56.2914 90.7488H58.8794C58.9593 90.7487 59.0376 90.7706 59.1061 90.8122C59.1745 90.8538 59.2305 90.9134 59.268 90.9848C59.3055 91.0562 59.3231 91.1365 59.3189 91.2172C59.3147 91.298 59.2888 91.376 59.2441 91.443L55.7773 96.6937C55.737 96.7541 55.6827 96.8035 55.6191 96.8376C55.5555 96.8718 55.4846 96.8896 55.4126 96.8895ZM89.246 96.8895C89.195 96.8894 89.1445 96.8804 89.0966 96.8628C89.0042 96.8285 88.9258 96.7638 88.874 96.6791C88.8223 96.5944 88.8 96.4946 88.811 96.3955L89.1493 93.2407H86.5613C86.4814 93.2408 86.4031 93.2189 86.3346 93.1773C86.2662 93.1357 86.2102 93.0761 86.1727 93.0047C86.1352 92.9333 86.1176 92.853 86.1218 92.7723C86.126 92.6915 86.1519 92.6135 86.1966 92.5465L89.6634 87.2958C89.7182 87.2137 89.7986 87.1524 89.8917 87.1218C89.9849 87.0911 90.0854 87.0929 90.1775 87.1267C90.266 87.16 90.3415 87.2213 90.393 87.3014C90.4444 87.3815 90.469 87.4763 90.4631 87.5717L90.1248 90.7488H92.7128C92.7926 90.7487 92.871 90.7706 92.9394 90.8122C93.0079 90.8538 93.0639 90.9134 93.1013 90.9848C93.1388 91.0562 93.1564 91.1365 93.1522 91.2172C93.148 91.298 93.1222 91.376 93.0775 91.443L89.6107 96.6937C89.5704 96.7541 89.516 96.8035 89.4524 96.8376C89.3888 96.8718 89.3179 96.8896 89.246 96.8895Z" fill="#F09199"/>
    </g>
</svg>
