<svg width="145" height="145" viewBox="0 0 145 145" fill="none" xmlns="http://www.w3.org/2000/svg">
    <path fill-rule="evenodd" clip-rule="evenodd" d="M133 8H12C9.79086 8 8 9.79086 8 12V133C8 135.209 9.79086 137 12 137H133C135.209 137 137 135.209 137 133V12C137 9.79086 135.209 8 133 8ZM12 0C5.37258 0 0 5.37258 0 12V133C0 139.627 5.37258 145 12 145H133C139.627 145 145 139.627 145 133V12C145 5.37258 139.627 0 133 0H12Z" fill="#F09199"/>
    <mask id="mask0_16_201" style="mask-type:alpha" maskUnits="userSpaceOnUse" x="0" y="0" width="145" height="145">
        <rect width="145" height="145" rx="8" fill="#C4C4C4"/>
    </mask>
    <g mask="url(#mask0_16_201)">
        <path fill-rule="evenodd" clip-rule="evenodd" d="M84.803 38.7817C84.803 38.7817 72.5 34.332 60.197 38.7817C60.197 38.7817 61.0758 40.5616 61.9545 46.3463C60.197 40.5616 48.7727 20.9828 34.7121 12.0833C34.7121 42.5005 49.879 49.3166 52.38 50.2338L44.8182 47.6812C34.7121 50.351 21.9697 83.2791 14.5 152.25L54.9242 152.096C54.9242 152.096 54.9242 128.666 67.2272 128.666V123.772C67.2272 123.772 50.0909 123.772 45.2575 111.312L45.7234 139.791C43.9394 128.666 43.9394 108.198 43.9394 108.198C43.9394 107.916 43.9369 107.563 43.934 107.146L43.934 107.146C43.8821 99.6739 43.6875 71.6845 54.9242 63.2553C49.4318 69.7074 48.3333 83.2791 48.3333 83.2791C49.4318 85.9489 53.3863 86.6164 53.3863 86.6164C53.3863 86.6164 54.2651 83.0566 56.6818 80.1643C56.6818 80.1643 56.0227 89.9537 70.7424 89.9537C70.7424 89.9537 69.4242 86.8389 70.303 83.7241C70.303 83.7241 72.9394 88.6188 80.4091 88.1738C80.4091 88.1738 81.9469 85.504 81.7272 83.2791C81.7272 83.2791 84.5833 86.6164 89.6363 86.8389C89.6363 86.8389 90.0757 84.3915 90.0757 82.3891C90.0757 82.3891 92.9318 86.6164 97.5454 86.6164C96.8863 77.7169 94.0303 70.8198 90.0757 63.2553C101.141 74.4611 101.096 93.1011 101.064 106.191C101.062 106.876 101.061 107.545 101.061 108.198C101.061 108.198 101.061 128.666 99.303 139.791L99.7424 111.312C94.909 123.772 77.7727 123.772 77.7727 123.772V128.666C90.0757 128.666 90.0757 152.25 90.0757 152.25H130.5C123.03 83.2791 110.288 50.351 100.182 47.6812L92.7731 50.1821C95.6821 49.0938 110.288 42.1329 110.288 12.0833C96.2273 20.9828 84.803 40.5616 82.6061 46.3463C83.9242 40.5616 84.803 38.7817 84.803 38.7817ZM92.2727 50.351C92.2727 50.351 92.4514 50.3025 92.7731 50.1821L92.2727 50.351ZM52.7273 50.351L52.38 50.2338C52.6048 50.3162 52.7273 50.351 52.7273 50.351ZM53.606 89.5087C62.8333 89.7312 65.6894 97.0733 65.9091 98.4082L64.5909 97.5182C64.5909 97.5182 64.1515 110.645 55.803 110.867C47.3924 111.092 47.4341 101.506 47.4529 97.174C47.4537 96.9813 47.4545 96.7989 47.4545 96.6283C46.5757 98.8532 45.6969 104.193 45.6969 104.193C45.6969 99.5206 46.7954 89.3445 53.606 89.5087ZM79.0909 98.4082C79.3106 97.0733 82.1666 89.7312 91.3939 89.5087C98.2045 89.3445 99.303 99.5206 99.303 104.193C99.303 104.193 98.4242 98.8532 97.5454 96.6283C97.5454 96.7989 97.5462 96.9813 97.5471 97.174C97.5659 101.506 97.6075 111.092 89.1969 110.867C80.8484 110.645 80.4091 97.5182 80.4091 97.5182L79.0909 98.4082ZM55.4126 105.973C55.3617 105.973 55.3111 105.964 55.2632 105.946C55.1708 105.912 55.0925 105.847 55.0407 105.762C54.9889 105.678 54.9667 105.578 54.9776 105.479L55.316 102.324H52.7279C52.6481 102.324 52.5698 102.302 52.5013 102.261C52.4328 102.219 52.3769 102.159 52.3394 102.088C52.3019 102.017 52.2843 101.936 52.2885 101.856C52.2927 101.775 52.3185 101.697 52.3632 101.63L55.8301 96.3792C55.8849 96.297 55.9652 96.2357 56.0584 96.2051C56.1515 96.1744 56.2521 96.1762 56.3441 96.2101C56.4326 96.2433 56.5082 96.3046 56.5596 96.3847C56.6111 96.4649 56.6357 96.5596 56.6297 96.655L56.2914 99.8321H58.8794C58.9593 99.832 59.0376 99.8539 59.1061 99.8955C59.1745 99.9371 59.2305 99.9967 59.268 100.068C59.3055 100.139 59.3231 100.22 59.3189 100.301C59.3147 100.381 59.2888 100.459 59.2441 100.526L55.7773 105.777C55.737 105.837 55.6827 105.887 55.6191 105.921C55.5555 105.955 55.4846 105.973 55.4126 105.973ZM89.246 105.973C89.195 105.973 89.1445 105.964 89.0966 105.946C89.0042 105.912 88.9258 105.847 88.874 105.762C88.8223 105.678 88.8 105.578 88.811 105.479L89.1493 102.324H86.5613C86.4814 102.324 86.4031 102.302 86.3346 102.261C86.2662 102.219 86.2102 102.159 86.1727 102.088C86.1352 102.017 86.1176 101.936 86.1218 101.856C86.126 101.775 86.1519 101.697 86.1966 101.63L89.6634 96.3792C89.7182 96.297 89.7986 96.2357 89.8917 96.2051C89.9849 96.1744 90.0854 96.1762 90.1775 96.2101C90.266 96.2433 90.3415 96.3046 90.393 96.3847C90.4444 96.4649 90.469 96.5596 90.4631 96.655L90.1248 99.8321H92.7128C92.7926 99.832 92.871 99.8539 92.9394 99.8955C93.0079 99.9371 93.0639 99.9967 93.1013 100.068C93.1388 100.139 93.1564 100.22 93.1522 100.301C93.148 100.381 93.1222 100.459 93.0775 100.526L89.6107 105.777C89.5704 105.837 89.516 105.887 89.4524 105.921C89.3888 105.955 89.3179 105.973 89.246 105.973Z" fill="#F09199"/>
    </g>
</svg>
