<svg width="145" height="145" viewBox="0 0 145 145" fill="none" xmlns="http://www.w3.org/2000/svg">
    <path fill-rule="evenodd" clip-rule="evenodd" d="M8 0C3.58172 0 0 3.58173 0 8V137C0 141.418 3.58173 145 8 145H15.3199C22.8762 80.9664 35.0729 50.2557 44.8182 47.6812L52.38 50.2339C52.6048 50.3163 52.7273 50.3511 52.7273 50.3511L52.38 50.2339C49.879 49.3166 34.7121 42.5005 34.7121 12.0833C48.7727 20.9828 60.197 40.5617 61.9545 46.3463C61.0758 40.5617 60.197 38.7818 60.197 38.7818C72.5 34.332 84.803 38.7818 84.803 38.7818C84.803 38.7818 83.9242 40.5617 82.6061 46.3463C84.803 40.5617 96.2273 20.9828 110.288 12.0833C110.288 42.1329 95.6821 49.0938 92.7731 50.1822L92.2727 50.3511C92.2727 50.3511 92.4514 50.3025 92.7731 50.1822L100.182 47.6812C109.927 50.2557 122.124 80.9664 129.68 145H137C141.418 145 145 141.418 145 137V8C145 3.58172 141.418 0 137 0H8ZM89.4597 145C88.4043 138.069 85.541 128.666 77.7727 128.666V123.772C77.7727 123.772 94.909 123.772 99.7424 111.312L99.303 139.791C101.061 128.666 101.061 108.198 101.061 108.198C101.061 107.545 101.062 106.876 101.064 106.191C101.096 93.1011 101.141 74.4611 90.0757 63.2553C94.0303 70.8199 96.8863 77.7169 97.5454 86.6164C92.9318 86.6164 90.0757 82.3892 90.0757 82.3892C90.0757 84.3915 89.6363 86.8389 89.6363 86.8389C84.5833 86.6164 81.7272 83.2791 81.7272 83.2791C81.9469 85.504 80.4091 88.1738 80.4091 88.1738C72.9394 88.6188 70.303 83.7241 70.303 83.7241C69.4242 86.8389 70.7424 89.9537 70.7424 89.9537C56.0227 89.9537 56.6818 80.1643 56.6818 80.1643C54.2651 83.0566 53.3863 86.6164 53.3863 86.6164C53.3863 86.6164 49.4318 85.949 48.3333 83.2791C48.3333 83.2791 49.4318 69.7074 54.9242 63.2553C43.6875 71.6845 43.8821 99.6739 43.934 107.146L43.934 107.146C43.9369 107.563 43.9394 107.916 43.9394 108.198C43.9394 108.198 43.9394 128.666 45.7234 139.791L45.2575 111.312C50.0909 123.772 67.2272 123.772 67.2272 123.772V128.666C59.4186 128.666 56.5661 138.104 55.524 145H89.4597ZM65.9091 98.4082C65.6894 97.0733 62.8333 89.7312 53.606 89.5087C46.7954 89.3445 45.6969 99.5206 45.6969 104.193C45.6969 104.193 46.5757 98.8532 47.4545 96.6283C47.4545 96.7982 47.4537 96.9798 47.4529 97.1716L47.4529 97.174C47.4341 101.506 47.3924 111.092 55.803 110.867C64.1515 110.645 64.5909 97.5183 64.5909 97.5183L65.9091 98.4082ZM91.3939 89.5087C82.1666 89.7312 79.3106 97.0733 79.0909 98.4082L80.4091 97.5183C80.4091 97.5183 80.8484 110.645 89.1969 110.867C97.6075 111.092 97.5659 101.506 97.5471 97.174C97.5462 96.9813 97.5454 96.7989 97.5454 96.6283C98.4242 98.8532 99.303 104.193 99.303 104.193C99.303 99.5206 98.2045 89.3445 91.3939 89.5087ZM55.2632 105.946C55.3111 105.964 55.3617 105.973 55.4126 105.973C55.4846 105.973 55.5555 105.955 55.6191 105.921C55.6827 105.887 55.737 105.837 55.7773 105.777L59.2441 100.526C59.2888 100.459 59.3147 100.381 59.3189 100.301C59.3231 100.22 59.3055 100.14 59.268 100.068C59.2305 99.9968 59.1745 99.9371 59.1061 99.8955C59.0376 99.854 58.9593 99.832 58.8794 99.8322H56.2914L56.6297 96.6551C56.6357 96.5597 56.6111 96.4649 56.5596 96.3847C56.5082 96.3046 56.4326 96.2434 56.3441 96.2101C56.2521 96.1762 56.1515 96.1745 56.0584 96.2051C55.9652 96.2357 55.8849 96.297 55.8301 96.3792L52.3632 101.63C52.3185 101.697 52.2927 101.775 52.2885 101.856C52.2843 101.936 52.3019 102.017 52.3394 102.088C52.3769 102.159 52.4328 102.219 52.5013 102.261C52.5698 102.302 52.6481 102.324 52.7279 102.324H55.316L54.9776 105.479C54.9667 105.578 54.9889 105.678 55.0407 105.762C55.0925 105.847 55.1708 105.912 55.2632 105.946ZM89.0966 105.946C89.1445 105.964 89.195 105.973 89.246 105.973C89.3179 105.973 89.3888 105.955 89.4524 105.921C89.516 105.887 89.5704 105.837 89.6107 105.777L93.0775 100.526C93.1222 100.459 93.148 100.381 93.1522 100.301C93.1564 100.22 93.1388 100.14 93.1014 100.068C93.0639 99.9968 93.0079 99.9371 92.9394 99.8955C92.871 99.854 92.7926 99.832 92.7128 99.8322H90.1248L90.4631 96.6551C90.469 96.5597 90.4444 96.4649 90.393 96.3847C90.3415 96.3046 90.266 96.2434 90.1775 96.2101C90.0854 96.1762 89.9849 96.1745 89.8917 96.2051C89.7986 96.2357 89.7182 96.297 89.6634 96.3792L86.1966 101.63C86.1519 101.697 86.126 101.775 86.1218 101.856C86.1176 101.936 86.1352 102.017 86.1727 102.088C86.2102 102.159 86.2662 102.219 86.3346 102.261C86.4031 102.302 86.4814 102.324 86.5613 102.324H89.1493L88.811 105.479C88.8 105.578 88.8223 105.678 88.874 105.762C88.9258 105.847 89.0042 105.912 89.0966 105.946Z" fill="#F09199"/>
</svg>
